<?xml version="1.0" encoding="utf-8"?>
<!-- Generator: Adobe Illustrator 26.0.3, SVG Export Plug-In . SVG Version: 6.00 Build 0)  -->
<svg version="1.1" id="Layer_1" xmlns="http://www.w3.org/2000/svg" xmlns:xlink="http://www.w3.org/1999/xlink" x="0px" y="0px"
	 viewBox="0 0 2196.5 843.1" style="enable-background:new 0 0 2196.5 843.1;" xml:space="preserve">
<style type="text/css">
	.st0{fill:#208C1E;}
	.st1{fill:#676767;}
</style>
<g>
	<path class="st0" d="M553.5,168.8l-0.1,0l0,0C553.4,168.8,553.5,168.8,553.5,168.8 M295,500.2l-0.1-0.7l0.1,1.4L295,500.2
		 M699.5,182.9c-0.5-0.2-3.1-1.1-3.3-1.1h-0.1c0.5,0.3,1.1,0.3,1.6,0.7c0.4,0.1,0.7,0.3,1.1,0.4l-0.4-0.2
		C698.8,182.7,699.1,182.8,699.5,182.9L699.5,182.9 M695.3,215.1c-0.3-0.5-0.5-0.6-1.3-0.7c-0.2,0-0.3,0-0.6-0.3
		c-0.3-0.3-0.6-0.6-0.8-0.9c-0.9,0-1.9,0-2.9,0l0.4,0.7l0.7,0.5c0.7,0.9,1.4,1.7,2,2.6c0.5,0,0.9,0,1.4,0c0.5,0,0.4-0.1,0.2-0.6
		c-0.2-0.3-0.2-0.3-0.1-0.4h0.2l0.6-0.3l0.2-0.1L695.3,215.1 M709,196.9c-0.9-0.6-2.2-1-2.6-1l-0.1,0l0,0l0.3,0.5l1.1,1.2l0.8,0.3
		l0.3-0.1l0.2,0l0,0l-0.1-0.2v0l0.5,0l0.3,0C709.7,197.3,709.3,197.1,709,196.9 M793.7,434.1c-0.8-10.4-1.9-20.6-3.3-30.7
		c-11.9-0.1-24.7-0.2-38.4-0.3c-17.7-0.2-36.2-0.5-54.9-0.9c0,0-1,4.7-2.2,5.8l-0.5,0.5l-0.5,0.4l-0.5,0c-0.7,0-0.7,0-2.5,0.4
		l-0.6,0l-0.5,0.1l-0.5,0.2l-0.5,0.4c-0.5,0-1-0.2-1.4-0.5c-0.2-0.3-0.6-0.6-0.9-0.9c-0.3,0-0.5-0.1-0.7-0.1c0,0-2.3-0.1-4.1-0.7
		l-0.6,0l-0.5,0l-0.5,0.3c1.5,1,2.1,1.1,4.8,1.6c0.4,0.4,0.4,0.7,0.4,1.1l0,0.6c0.3,0.5,0.8,0.9,1,1.4c0.1,0.4,0.1,1,0.1,1.4
		l0.1,0.5l-0.1,0.6c0,2.9,2.4,4.6,3.5,6.9c1.6,2.5,1.9,2.7,3.1,3.5c0.8,0.1,1.1,0.2,1.5,0.2c1.8,0.2,1.8-1.8,2.8-2.6
		c0.2,0.3,0.5,0.6,0.7,0.9c1.5,2.3,3.8,3.8,5.3,6.1l4.4,9.4c0,0.7,0,0.8,0.1,1c-0.4,1.4-0.5,3.3,0.4,4.6c1,1.4,2.9,0.9,4,2
		c0.4,0.4,5.1,8.8,5.1,8.9c1.4,3.1-2,7.8,2.3,9.8c0,0,5,3.7,6.1,7.5c0.6,2,1,2.4,1.8,2.9c2.1,1.6,2.1,1.6,7.9,16.5
		c-0.1,3.4-0.3,6.4-0.5,9.4c1,4.7,7.4,6,9.4,3.6c3.2-3.8,3.2-3.8,4.5-4.1c1.8,0,3.5,0,5.3,0.1h0.4c0.3,0.2,0.7,0.6,0.9,0.8h0.6
		c0.4-0.6,0.9-1.5,1.3-2.1c3.1-5.2,10.1-3.1,13.8-7.2c0.9-1.3,0.9-1.3,3.9-1l0.5-0.5c0-2.5,0-2.6,0.9-3.5c0.7,0.1,0.8,0.1,2.7-1.1
		c1.1-0.7,1.1-0.7,8.2-0.4c0,0,0.1-3.6,1.3-5.6c1.5-0.3,2.9-0.3,4.2-0.3c0.6-2.5,1.7-4.8,1.7-4.8c0.4-9.6,0.3-18.9-0.1-28l-0.4,0.5
		c-0.8-1-0.6-2.2-1-3.2c-0.6-0.2-0.6-0.2-1.2-1.2c-0.2-1.8-0.3-3.6-0.4-5.3c-0.6-1-0.6-1-1.1-1.4c-2.6,0.9-2.6,0.9-3.2,8.6
		c-1,0.3-2,0-3,0c-0.8,0-1,0-1.3,0c-0.8-0.3-1.5-0.7-2.2-1c-0.6-0.1-0.8-0.1-1-0.1c-2.2,2.2-2.2,2.2-3.1,3.3c0,0-3.5-0.4-3.8-4.8
		c0.3-0.1,0.6-0.2,0.9-0.4c0.9-0.8,1.1-0.8,1.7-1c0.5,0,0.6,0,0.8,0c5,2.5,4.9-0.7,4.8-0.7l-0.4-0.5c-0.7-0.2-1-0.3-1.3-0.3
		c-0.4,0-0.8,0.1-1.2,0.2c-0.7,0-1,0-1.3,0c-2.4-0.7-4.9-0.8-7.3-1.5c-0.7-0.1-1.1-0.1-1.4-0.1c-0.1-1.7-0.2-3.4-0.3-5.1
		c-0.9-1.3-0.9-1.4-6.5-3.5c-1.1-4.4-4-8.4-3.5-13.3c0.4-3.5,5.1-1.4,5.1-1.4c0.4,0.2,0.4,0.2,3.4,3.4c2,2.1,2,2.1,3.7,5.5
		c1.1,2.1,3.6,2.4,5,4c2.5,2.9,3.2,3.6,9.8,4.4c0.6,0,0.8,0,1,0c0.3,0,0.6,0,0.8,0c0.8-0.6,1.9-0.3,2.8-0.8c0.7-0.2,0.9-0.2,1.2-0.2
		c1.5,0.1,1.5,0.1,3.1,1.7L793.7,434.1 M847.8,297.9c-8.1-10.8-19.4-24.9-28.2-35.1c1.9,2-26.4,3.2-79.6,2.9
		c22.1,38.4,38,85.6,45.4,137.7c70.3,0.4,108.6-1.1,107.9-3.8l-4.4-16.3c-10.3-29.9-10.5-30.4-17.3-44.5
		C857.8,312.9,855.7,308.9,847.8,297.9 M635.6,263.9c1.4,0,2.7,0.1,4,0.1c-0.3,0-0.5-0.2-0.8-0.2l-0.4,0l-0.1,0
		c-0.3-0.1-0.4-0.2-0.8-0.6l-0.1-0.7l-0.3-0.1c-0.4,0-0.7-0.1-1.1,0c0,0-0.2,0-0.5,0.2c-0.3,0.2-0.3,0.2-0.3,0.2l-0.1,0.7
		L635.6,263.9 M636.7,209c-0.2-0.8-0.4-1.5-0.7-2.3l-0.1,0l-0.4,0.1c-0.3,0-0.7,0-1,0l0.1,0.2v0.5c0.1,0.5,0.3,1,0.5,1.5
		C635.6,209,636.2,209,636.7,209 M740,265.7c-10.6-18.3-22.5-34.6-35.7-48.5c0,0.3,0.1,0.7,0.1,0.9c-0.6,0.2-0.8,0.2-1,0.2
		c-0.7-0.1-0.8-0.1-1-0.1c-0.3,0-0.6,0-1,0c0.1,0.6,0.5,1.1,1,1.6c-0.5,0-0.9,0-1.3,0c-1.4-0.7-1.4-0.7-4-3.9l-0.3,0.8
		c-0.3,0-0.6,0.1-0.9,0.2l-0.3,0.8c-0.6,0.4-0.8,0.4-1,0.4c-0.3,0-0.6,0-0.9,0c-0.1,0.3-0.2,0.7-0.3,1c-0.9,0.3-1,0.3-1.2,0.3
		c-1.2,0.4-1.3,0.4-1.6,1.9c-0.5,0.2-1.2,0.3-1.7,0.3l-0.6,0.7c1.9,1.6,1.9,1.6,2,1.8c-0.4,1-0.4,1-2.6,1.8
		c-0.3,0.1-0.4,0.1-0.5,0.1c-4.5-3.5-4.5-3.5-4.8-4.1c0.8-0.2,1.8-0.2,2.7-0.2c-0.4-0.6-0.8-1.2-1.2-1.8c-0.4-0.3-1-0.6-1.5-0.7
		c-0.8-0.7-0.8-0.7-2.2-1.7c-0.3,0.1-0.6,0.2-0.9,0.2l-0.2,0c-0.9-0.6-1.1-0.7-2.6-0.7c-0.3,0-0.7,0-1,0c-0.5,0.4-0.3,0.8-0.1,1.2
		c0.3,0,0.7,0.1,1,0.1c1.5,1.4,2.3,2.5,2.9,3.7c-0.2,1-0.3,1.2,1.3,2.4c0.5,0.2,0.5,0.2,2.4,1.5l0.3,0.4c0.2,1.1,0.9,2,1.3,3
		c-1.9-0.2-1.9-0.2-2.6-0.6l-0.4-0.6c-0.1-0.1-0.1-0.1-4-0.2c-0.1,0.5-0.2,1.2-0.5,1.7c-2.1,0.7-2.1,0.7-2.5,2
		c-0.3,0.1-0.7,0.1-1,0.2l0.1,0c0.9,1.9,3.3,2.6,4,4.6l-0.1-0.1c-2.7-0.1-2.7-0.1-3.5-0.4c-0.4,0-0.5,0-0.8,0
		c-4.5-1-5.8-2.4-6.2-2.9c-0.3,0.4-0.9,0.8-1.4,1c0,0.8,0.1,1.8,2,2.3l0.4,0.8c0.6,0.5,0.8,0.5,1,0.5c1.5-0.3,1.9,0,3.4,1.1
		c0,0.3,0,0.6,0.1,0.9c-1,0.1-2,0.1-3,0l-0.4,0.8l-7.7-6.3c-0.6,0-1.2,0-1.9,0l-0.8-2c-1.2-4.8-7.4-4.2-9.1-8.5
		c2,0.5,8.9,3.5,8.9,3.5c2,0.2,3.2,0.3,4.5,0.3c1.4,0.3,2.7,1.1,4.2,1.3c0.8,0,1,0,1.2,0l0.5,0c10.4-3.5,0.1-8.6-0.1-8.7l-8.5-3.1
		c-0.5-0.4-1.3-0.8-1.9-1c-0.9-0.5-1.5-0.8-3.5-0.6c-0.9,0.1-1,0.1-1.1,0.1c-0.8-0.5-1.7-0.8-2.4-1.4c-0.8-0.3-1.3-0.3-1.8-0.3
		l0.4,0.8c-0.7,0.5-0.9,0.5-1,0.5l-0.8-0.4c0-0.3,0-0.6,0-0.9c-0.1-0.5-0.2-0.6-0.2-0.7c-0.9-0.4-1.2-0.5-1.9-1.7c-0.5,0-1,0-1.4,0
		l-0.5,0.7c-1.5-0.3-2.9-0.9-4.3-1.2c-0.5-0.3-0.6-0.5-0.6-0.7c0.2,0,0.6,0,0.9,0c0.1-0.3,0.3-0.7,0.4-1c-0.5-0.5-2-1.8-5.7-2.3
		c0.2,0.5,0.4,1,0.6,1.5c-0.3,0-0.7,0.1-0.9,0.1c-0.5-0.4-0.6-0.7-0.7-1l0.3-0.8c0-0.3-0.1-0.4-0.1-0.6l-3.2-0.1
		c0.2,0.5,0.4,1.1,0.6,1.6c0,0.6,0,0.8,0.1,0.9l-0.3,0.4c-0.2-1.5-0.2-1.5-1.1-2.2c-0.6,0-0.9-0.1-1.2-0.1l-0.4-1.3l-0.6-0.1
		l-0.1,0.1c-0.7,0.6-1.5,0.7-2.3,1.1c0,0.5-0.4,1.1-0.7,1.4h-0.4l-0.8-0.3c-0.1-0.3-0.1-0.6-0.1-0.8c-0.2-0.4-0.7-0.4-1.2-0.4
		c-1.4,0.2-1.6,0.4-2.4,0.9c0.3,1.4,0.3,1.4,2.6,1.8c0.2,0.4,0.3,0.8,0.4,1.2c-0.3,0-0.6,0-1,0c-0.5-0.3-0.5-0.3-2.6-0.6
		c-1-0.2-1.3-0.2-1.6-0.2c0.3,1.7,0.3,1.7,0,2.6c-0.3-0.5-0.6-1.1-0.8-1.6c-1.5-0.3-2.4-1.8-4-1.8c-0.2,0.4-0.2,0.7-0.1,1
		c1.3,2.9-0.4,3.4-1.1,3.5c-0.3-0.4-0.7-1-0.8-1.5l-0.6,0.7c-0.2,0-0.6,0-0.9,0c-0.2,0.3-0.5,0.7-0.7,1c0.4,0.3,0.9,0.7,1.4,1
		c0,0.5,0,0.7,0,0.9l-0.8,0.4c-0.1-0.1-0.1-0.1-2.4-0.9c0.1-0.5,0.1-1.3,0.1-1.8c-0.3,0-0.6-0.1-0.9-0.1c-0.1,0.6-0.1,1.1-0.1,1.6
		c-2.2,0.3-2.2,0.3-2.6,0.5l0.5,0.7l-0.6,0.7c-1.6,0-1.6,0-2.6,1l-0.5,0.1l-0.7,1.1l-0.5,0l-0.6,0.7c0.3,0,0.7,0,1,0
		c1.8-1.1,1.8-1.1,3.2-1c2-1.8,4.1-1.4,5.2-1.3c0.1,0.3,0.2,0.7,0.3,1c-0.9,0-0.9,0-3.3,0.9c-0.3,1.1-1.2,1.9-1.2,3.1
		c-0.4,0.3-1,0.6-1.6,0.7c-0.9,1.8-3.1,3-3.1,3c-0.5,1.7-1.5,3.2-1.9,4.9l-0.1-0.5c-0.7,0.5-1.4,0.9-4.8,2.4l-0.3,1
		c0.3,0,0.6,0.1,0.9,0.1c0.7-0.1,1.1,0,1.5,0c-0.9,3.5-4.9,3.5-6.8,6c-0.6,0-1.4-0.2-1.9-0.5c-0.6,0-1-0.1-1.4-0.1l-0.3,1.1
		c0.1,0.3,0.2,0.7,0.3,1c-0.4,0.3-1.1,0.6-1.6,0.7c-0.6,0-0.6,0-0.6,0h-0.1h0l0,0h0h0h0h0c-1.4,0.6-2.7,1.3-4.1,1.8
		c-0.5,2.5-3.1,2.3-4.5,3.5c0.1,0.5,0.1,1.2-0.1,1.7c-0.1,0.1-0.1,0.1-1.2,3.8c-0.3,0.1-0.5,0.1-0.8,0.1c-0.5,1.1-0.6,1.6-0.7,2.1
		c0.6,0,1.2,0,1.8,0.1c0.3,0,0.6,0,0.9-0.1l0.6,0.7c-0.2,0.5-0.8,1-1.2,1.2c-0.4,1.5-0.4,1.5-1.4,2.1c0,0.3-0.1,0.6-0.1,0.9
		c0.7,0.4,0.7,0.4,2.8,0.6c-0.3,1.6-0.3,1.6-1.2,2.2c4.1,0.2,8.2,0.3,12.3,0.4c1.1-1.5,1.1-1.5,3.7-2.2c0.1-0.5,0.2-1,0.2-1.5
		c1.4,0.2,1.5,1.5,2.2,2.3c0,0.3,0,0.7,0,1c7.2,0.7,14.5,1,21.8,1.2c0.7-0.5,1.6-0.7,2.4-1.1c0.1-1.3,0.2-1.4,1.9-2.8
		c0-0.9-0.1-1.2-0.1-1.4c0-0.3-0.2-0.6-0.2-0.9c-1.2,0-2.3-0.3-3.5-0.2c0-1.8,0-1.8-0.4-2.7c-0.5-0.1-1.2-0.4-1.6-0.7
		c-0.1-2.6-0.1-4.4-0.2-6.2c0.1,0,0.1,0,2.7-4.5c4-0.9,6.8-4.6,6.8-4.7c0.9-0.6,0.9-0.6,2.5-0.7l0.6-0.7c-0.9-2.8,0.8-5.2,1.1-7.8
		c1.1-0.2,1.1-0.2,2.7,0l0.1,0l0,0h0h0h0h0h0h0c1.4,1.5,1.4,1.5,2.2,1.7l0.6-0.7c1.4,0.6,1.5,0.7,2.2,1.7c0.4,1.2,0.5,1.8,0.7,2.5
		c-0.6,0-1.2,0-1.8,0c0.5,2.7,0.5,2.7-7.9,9.5c0.2,2.4-0.1,4.8,0.4,7.1l0,0.7c0.2,0.5,0.3,1.3,0.3,1.8c1.6,1.1,8,4.6,8.1,4.6
		c0.4,0,0.5,0,0.6,0c2.2-1.1,4.8-0.4,7-1.4l0-0.7c2.4-0.3,4.2-0.2,6-0.2c0.4-0.3,1.1-0.6,1.6-0.7l0.3,0c0.4,0.4,0.8,0.9,1,1.4
		c1.9,0.4,3,0.4,4.2,0.4l0.5,0.7l-0.5,0.7c-4.4,0-5,0-6.3,3.5c-3.7,1.4-7.3-2.4-11-0.2c-1.5-0.5-1.5-0.5-2.5,0
		c0,0.5-0.4,1.2-0.7,1.5c27,1.4,53.8,1.9,78.8,2.2C721.7,265.6,731.2,265.7,740,265.7 M591.8,262.7c-4.1-0.2-8.2-0.3-12.3-0.4
		l-0.1,0.1c-0.4,0.5-0.4,0.5-0.4,0.6c0,0.3,0.3,0.5,0.3,0.7l-0.1,0.5c2.2,0,2.2,0,2.3,0.1l0.3,0.4c0,0.2,0,0.2,0.8,1.1
		c0.4-0.1,1-0.2,1.5-0.3c0.5,0.2,1,0.5,1.6,0.6c0,0,0.2,0,0.7,0c0,0,1.3-0.2,1.6-0.8c0.2-0.3,0.3-0.4,0.5-0.4c0.9,0,0.9,0,1.3-0.1
		c0.3-0.1,0.8-0.6,0.8-0.6l0.4-0.6C591.1,263.2,591.5,263,591.8,262.7 M619.6,263.5c-7.2-0.2-14.5-0.5-21.8-0.7
		c0,1.1,1.4,1.5,1.4,2.6l0,0.4c-0.1,0.4-0.8,0.2-0.8,0.7c0,0.3,0.1,1.7,1,2.2l0.8,0.3c0,0,0.8,1.1,0.9,1.4c0,0.3,0,0.5,0,0.8l0,0.7
		c0.2,1.5,0.7,1.9,2,3c0.8,0.7,0.8,0.7,0.8,1.3c0,0.8-0.7,1.2-0.8,1.9l0,0.4c0,0.5,0.3,1,0.3,1.6c1.8,0.1,3.5,0.1,5.3,0.2
		c0.3-2.2,0.5-3.5,2.3-3.4c0.2,0,0.5,0,0.7,0l1,0.4c0.7,0.6,1.1,0,1.6-0.7c0.3-0.4,0.8-0.3,1.9-0.3c0-0.8,0-1.5,0-2.3c1,0,2,0,3,0.1
		c0.1-0.9,0.1-0.9,0-1.9c-0.5,0-1,0-1.5,0c-1.4,0.2-1.4,0.2-1.6,0.1l0.1-0.7l-0.7-0.2c1.4-2.2,1.4-2.2,1.7-4.4c0.3-2,0.3-2,0.4-2.2
		C618.1,264,619.2,263.6,619.6,263.5 M785.4,403.4c-7.4-52.1-23.3-99.3-45.4-137.7c-8.8-0.1-18.3-0.1-28.4-0.3
		c-25-0.3-51.8-0.8-78.9-1.5c-1.3,0-2.7-0.1-4-0.1c0.7,0.2,0.7,0.2,0.7,0.2h0h0.1h0h0h0.1h0h0.1c-0.9,0.4-2.1,0.9-3,1.2
		c0,0.5,0,1.1,0.1,1.6c1.7,0.8,1.7,0.8,4.3,0.9c0.6-0.7,1.6-1.6,2.3-2.1c1.8,0.8,2.7,2.8,4.5,3.7c0,0.4-0.1,1.1-0.1,1.5
		c-0.8,0.3-1.7,1.2-2.1,2c-0.5,1-1,1-1.4,1c-0.5-0.1-1.1-0.2-1.5-0.3c-0.2-0.4-0.5-0.9-0.7-1.3c-0.9-1-1.2-1-1.4-1.1
		c0-0.4-0.1-1-0.1-1.5c-0.5,0-1,0-1.5,0c-0.5,0.8-1.3,1.6-2,2.2c-0.5,3.4-1.9,10.1-1.9,10.1c0.3,0.3,0.7,0.7,1,0.9l-0.4,0.8
		c-5.6-1.1-5.6-1.1-7.2-0.1c0.3,0.9,1,1.9,1.7,2.5l-0.2,0.8l-0.8,0.2c-1.7-1.2-3.3-2.6-5.1-3.7c-12,5.3-15.2,6.7-14.9,1.3l-1.5,0
		c-0.7,0.5-1.8,0.8-2.7,0.7c-0.8-0.1-1.3-0.1-1.8-0.1c-0.5,0-1.1,0.1-1.6,0.1c0,0.4,0,1,0,1.5c-0.7,0.9-1.2,0.9-1.7,0.9
		c-0.4-0.1-1-0.2-1.4-0.4c-0.3-0.6-0.9-1.5-1.6-1.9c-0.5,0-1,0-1.5,0c0-0.5,0.1-0.9,0.1-1.4c0.1-0.4,0.2-1,0.3-1.5c1-0.1,2.1,0,3,0
		c1.5,0.4,2.8,1.3,4.4,1.4c0.6-0.7,1.8-2.3,1.9-7c-0.5-0.4-1-0.4-1.5-0.5c-3,0.7-3,0.7-3.8,1.8c-0.7,0.4-0.8,0.4-0.9,0.4h-0.1
		c-0.2-0.4-0.4-1-0.6-1.4c0.3-0.4,0.7-0.8,1-1.2c0.3-1,0.3-1.4,0.3-1.8c-0.4,0-1,0.1-1.5,0.1c-0.8-5.9-0.8-5.9-1.5-6.2
		c-3.1,3.3-3.1,3.3-4.2,3.4c-0.2,0.4-0.6,0.8-0.9,1.2c0.2,0.8,0.2,0.9,0.1,1.1c-0.7,0.6-1.7,1.2-2.5,1.5c-1,2.5,1.7,4.5,1.1,7
		c0,0.4-0.1,0.6-0.1,0.9l-0.5,1.7c0.3,0.8,0.7,1.9,1.1,2.8c-0.1,1-0.1,1.5-0.1,2c-0.4,0-0.8,0-1.2,0c-0.4,0.1-1,0.1-1.5,0.2
		c-1.8,0.1-2.1,0.1-2.4,0c-3.4-0.6-3.4-0.6-10.4,4.2c-1.3-0.6-1.5-0.6-1.8-0.6c-0.2,0-0.5,0-0.8,0c-0.4,0-1,0-1.5,0
		c-0.2,0.5-0.2,1-0.3,1.6l1.4,0.8c-0.1,0.9-0.2,1.8-0.4,2.7c-2.6,0.1-3.1,0.3-6.7,3.2c-0.9,0.4-1.2,0.4-1.5,0.4c-0.5,0-1.1,0-1.5,0
		c-1.4,1.6-1.6,3.2-1.9,4.9c-2.4,0-2.7,0-4.6,0.4c-0.3,0.9-0.5,1.7-0.6,2.6c-1,0-2-0.1-3-0.1c-0.8-0.5-0.9-0.5-0.9-0.5
		c-0.5,0-1.1,0-1.5,0c-1-0.5-0.9-0.8-0.9-1.1c-0.4-0.2-0.9-0.6-1.3-0.8c-0.9,1-1.1,1.8-1.3,2.6c0.4,0.2,1.1,0.5,1.5,0.7
		c-0.3,0.5-0.8,1.2-1.1,1.7l0.3,0.9c-0.1,0.4-0.1,0.7-0.2,1.1c-2.1,0.1-4.1-0.5-6.2-0.5c-0.2-0.4-0.5-0.9-0.8-1.3
		c-4.4,0.9-4.4,0.9-5.5,2c0.4,1.2,0.7,1.2,1,1.3c0.6,0.7,1.5,1.5,2.3,1.9c1.7,0,2,0,2.3,0c2.6,2.5,2.6,2.5,3.1,3.3
		c0.6,2.5,0.4,4,0.1,5.5c1,1.2,2.2,1.9,3.2,3.1c-0.4,2.1-0.4,2.1-4.3,12.1c-1,0.5-2.3,1.1-3.3,1.5c-0.7,0-1,0-1.3,0
		c-2.2-1-5-0.6-6.7-2.9c-3.5-0.5-6-0.6-8.5-0.7c-3.3-0.5-3.3-0.5-4.2-1.3l-0.4,0c-0.3,0.3-0.7,0.8-1,1.1c-2.1,1.1-3.5,1-4.8,0.9
		l-0.6,0.9c2.2,3.3-1.2,6.8,0.2,10.2c-0.3,1.8-0.7,3.6-1,5.4c-3.7,6.2-3.7,6.2-2.9,8.2c0.4,1.5,0.3,1.8,0.3,2.2l-0.2,0.9
		c-1.2,1.7-1.2,1.7-1.4,4.4c0.8,0.4,1.7,0.4,2.5,0.4c1.8-0.4,2.4-0.5,4,1.3c0.9-0.1,2.1-0.3,3-0.6c0.4,0.3,0.4,0.3,3.3,2
		c0.4,0.8,0.9,1.9,1.1,2.8c0.4-0.1,1-0.2,1.4-0.3l-0.9-0.3c8.3-2.6,14.9-9.5,24.3-9.4c1.5-1.2,1.6-2.2,1.7-3.3
		c-0.4-0.8-1.2-1.9-1.9-2.5c0.2-0.9,0.2-0.9,3-5.6c1.7-2.9,13.3-5.2,13.4-5.2c1-1,1.1-1.9,1.2-2.8c0-0.3,0.1-0.6,0.1-0.9
		c-0.1-4-0.3-7.4,5.8-5.8c0.8,0.1,0.8,0.1,0.8,0.1h0.1h0.1h0.1l0.1,0h0.1h0.1h0c2.6,1.6,2.6,1.6,4.8,1.7c0.4,0,0.8,0,1.3,0.1
		c0.4,0,1.1,0,1.5,0c0.4-1.9,0.5-2.1,2.2-3.9c1.3,0,1.6,0,1.9,0c1.4,0.1,2.5,0.1,5.2-2.7c5.4,0.8,5,7,8.9,9.2
		c0.8,0.5,1.6,1.5,1.9,2.3c13.1,9.1,19.5,15.6,19.3,19.4c-2.4,0.9-11.9,2.3-15.2,2.2c-0.2,0.3-0.5,0.8-0.7,1.1c2.5,1.3,4,4,6.8,4.9
		c2.4,0.1,4.2,0.2,6.1,0.2c0-1.2,0.1-2.4,0.1-3.6c4.1-1.6,6.3-5.4,9.6-8c-0.1-1.8-0.1-2.1-0.1-2.5c-1.8,0.1-2.4,0-3,0
		c-0.9-0.5-0.9-0.8-0.9-1.2c1.5-1.4,2.7-1.3,3.9-1.3c2.4,0.9,2.4,0.9,3.7,2.2c0-0.1,0-0.1-0.2-4.4c-2.8-2.2-6.8-2.9-8.6-6.5
		c-1.1,0-3.4-0.1-7.7-3.9c0.7-1.5,0.7-1.5-3.9-5.1c-0.5-0.5-0.8-0.5-1.1-0.5c-0.1-0.9-0.5-2.2-0.9-3c-1-0.1-2.2-0.1-3.2-0.1
		c0.1-0.8,0.1-1.6,0.1-2.4l0.9-0.9c0.9-0.8,0.9-0.9,0.9-1.1c-0.4-0.8-0.6-2-0.6-2.9c3.1-1,3.4-0.2,4.3,2.5
		c6.8,0.9,8.5,9.2,15.2,10.3c0.1,0.3,0.2,0.6,0.2,0.9c2.7,3.1,7.5,3.7,9.7,7.5c-1.9,5.2-1.9,5.2,0.2,6.7c0.1,2.4,0.2,5.1,4,5.4
		c1.4,1.7,1.4,2.9,1.4,4.2c-0.8,0-1.6,0-2.3-0.1c-0.3-0.4-0.6-0.8-0.8-1.2c-0.3,0.3-0.6,0.8-0.9,1.2c2.2,3.4,2.2,3.4,4.7,4.2
		c0.2-0.4,0.4-0.8,0.6-1.2c1.6,1,1.7,1,3.4,3c-0.2,0.9-0.1,2.2,0.1,3.1c1.4,0.5,2.1,0.5,2.8,0.5c0.5,0,1.1,0,1.5-0.1
		c0.5-0.7,1.2-1.7,1.7-2.5c-0.1-0.6-0.1-0.9-0.1-1.2c-0.1-0.4-0.2-1-0.3-1.4c0.4-0.3,0.8-0.6,1.2-0.9c0.9,0.2,2,0.7,2.7,1.2
		c0.7,0,1,0,1.3,0c0.3-0.3,0.8-0.7,1.1-1c0-0.8,0-1.9,0-2.7c0.9,0,2,0,2.9-0.2c-1-1.6-1.4-2-3.4-2.9c-0.1,0.9-0.5,2.1-0.9,2.9
		c-2.2-0.5-2.4-1.3-4.1-5.9c-2.4-0.9-2.4-0.9-3.9-2.2c0-1.3,0-1.6-0.1-1.9l1.6-0.4c0.7,0.5,1.8,1.1,2.6,1.5c1.4,0,1.7,0,2,0
		c0.3,0,0.6,0,0.9,0c0.2-0.8,0.1-2-0.1-2.8c1.8-1.5,1.8-1.5,9.8,1.4c0,0.4,0.1,1,0.1,1.4c0.3,0.2,0.7,0.3,1,0.5l0.8,1.7
		c-0.4,0.2-1,0.4-1.5,0.6c-0.2,3,4,3.8,3.3,7c0,0.5,0.1,1.1,0.1,1.5c0,0.6,0,0.9,0,1.2c0.4,0.8,1,1.8,1.5,2.6l0.4,0.5l0.5,0.3
		l0.3,0.5l0.6,0.5l0.5,0.4c0.1,0.4,0.3,1,0.4,1.5l-0.5,0.6l-0.2,0.5l-0.2,0.6c0.1,0.9,0.2,2,0.5,2.8l0.5,0.5l0.5,0.4l1-1.5l0.3-1.2
		c0-0.6,0-1.4-0.2-1.9c0.3-1.4,0.6-1.4,0.9-1.4l0.5,0.1l0.5,0.4l0.4,0.5l0.5,0.4c0.5,0.4,1.1,1,1.6,1.5l0.5,0.6l0.4,0.5l0.5,0.3h0.5
		c0.7,0,1.7,0.2,2.4,0.5c1.2,0.1,1.3,0.1,1.5,0.1l0.4-0.2l0.5-0.3l-0.1-0.5l0.1-0.5c-0.1-0.7-0.1-1.8,0.2-2.5l0.2-0.5l0.7-0.5
		c0.9-0.1,2.2,0.2,3.1,0.5l1.4,1.3l1.7,1.4l0.4,0.5l0.5,0.4l0.5,0.1l0.6,0.3c2.1,0,4.2,0.1,6.3,0.1c-0.1-0.4-0.1-1-0.1-1.5
		c0-0.4-0.1-0.6-0.1-0.8c0-0.4-0.1-1-0.1-1.5c0.4-0.1,0.9-0.2,1.3-0.3l0.4-0.1l0.7,0c1,0.2,2.2,0.9,2.9,1.6c1.1,0.1,1.3,0.1,1.5,0.1
		l0.5-0.2l0.2-0.5l0.4-0.4l0.5,0.1l0.9,1.2l0.1,0.5c0.1,0.9,0,2.2-0.2,3.1c-0.5,1.7-1,3.4,0.1,5.3l0.1,0.5c0.2,0.4,0.5,0.9,0.7,1.3
		c-0.2,0.5-0.3,1.1-0.5,1.5l-0.4,0.3l-0.2,0.5l-0.1,1.7l-0.3,0.5c-1.6,2.7-1.6,2.7-2.6,3.3l-0.4,0.4l-0.5,0.5l-0.1,0.5
		c18.8,0.9,37.2,1.1,54.9,1.4C760.7,403.3,773.5,403.4,785.4,403.4 M743.5,203.5l-18.8-9.6l0,0l0.7,0.3c0.4,0.2,0.4,0.2,0.4,0.2
		c-0.4-0.2-0.4-0.2-0.4-0.1l0.5,0.2l0.6,0.3l-0.1,0c-1.3-0.6-2.5-1.3-3.9-1.7c0.7,0.3,1.4,0.7,2,1c-0.6-0.2-1.3-0.5-1.9-0.8
		c-0.6-0.4-1-0.6-3.4-1.7c-0.4-0.2-0.5-0.2-0.7-0.3l-0.7-0.3c1.5,0.8,3.1,1.5,4.7,2.2l0,0.1l0.4,0.2c0.7,0.3,1.4,0.6,2.1,0.9
		c0.3,0.2,0.5,0.2,0.7,0.3c0.4,0.2,0.9,0.5,1.3,0.7l0.2,0.1l0.5,0.4l0,0.1c0.3,0.3,0.3,0.3,0.3,0.3l-0.2-0.1c0,0-5.3-2.9-7.3-3.8
		c-0.6-0.3-0.6-0.3-0.6-0.3c-0.4-0.3-1.1-0.6-1.5-0.8c-0.4-0.2-0.9-0.4-1.3-0.6v0c-0.8-0.4-1-0.5-4.1-1.8c-0.5-0.2-0.5-0.2-0.5-0.2
		c-0.9-0.4-1.9-0.8-2.8-1.2c-0.5-0.2-0.5-0.2-0.5-0.2c-1.7-0.7-3.1-1.2-4.8-1.9l-0.1,0c-2.2-0.8-4.3-1.6-6.5-2.4
		c-0.4-0.1-0.4-0.1-0.5-0.1l-0.7-0.2c0.4,0.2,0.9,0.4,1.3,0.5c-0.4-0.2-1.1-0.3-1.5-0.5c0.6,0.3,1.6,0.6,2.5,1l-0.1,0l-0.7-0.3
		c-0.4-0.1-0.8-0.3-1.1-0.4c-0.9-0.4-1.9-0.7-2.9-1l-0.2,0c-0.5-0.1-1.3-0.3-4.1-1.4c-0.7-0.2-1.3-0.4-1.9-0.6l-0.4,0.1
		c8.4,3.2,8.4,3.2,10,3.8l-0.6,0.1c0.5,0.2,1.1,0.4,1.5,0.6c0.5,0.2,0.5,0.2,0.5,0.2l0,0l0,0l0,0l0,0h0c0.5,0.2,0.8,0.3,1.1,0.5
		c0.4,0.2,0.9,0.4,1.3,0.6c-0.4,0-0.4,0-2.8-0.8c-0.3,0-0.3,0-0.4,0l-0.8-0.2c1,0.7,2.1,1,3.2,1.5l-0.2,0.3c0.7,0.4,1.3,0.8,1.9,1.2
		l-0.6-0.2c1.6,1.6,1.6,1.6,9.7,5.7c0.5,0.2,0.8,0.4,1.1,0.5l0.6,0.4l-0.7-0.1l0.2,0.7c-0.4,0-1,0-1.4,0c-0.3,0.3-0.6,0.3-0.9,0.4
		l0.4,0.5l0.6,0.4c-0.2,0.1-0.6,0.1-0.9,0.1c0.3,0.3,7.9,4.6,9.2,4.8l0.3,0c0.5,0.1,1.2,0.2,3.2,1.4c0.4,0.2,0.6,0.4,0.9,0.6
		l0.6,0.5c-0.4,0-0.4,0-6-2.3c-0.4,0-0.9,0-1.3,0c-0.6-0.2-1.5-0.6-2.1-0.9L715,200l-0.1,0.7l0.7,0.6c1.7,0.3,1.7,0.3,3.3,1.3
		c-0.2,0-0.2,0-2.1-0.5h-0.2c1.3,1.6,2.5,2.1,3.6,2.5c0.4,0,0.4,0,0.4,0h0h0h0h0h0h0h0c2.8,0.8,5.4,2.5,5.4,2.5
		c-2.7-1.5-6.1-1.5-8.7-3.4c-0.6-0.4-1.1-0.7-1.5-1c-4.7-3-4.7-3-7-4.2c-0.4,0-0.4,0-0.4,0l0,0h0l0,0h0l0,0h0h0
		c4.3,2.7,4.3,2.7,4.7,2.9c0.4,0.2,0.6,0.4,0.9,0.6l-0.7,0c1.1,1.3,2.7,2.7,2.7,2.7l0.3,0.3c7.5,4.5,7.5,4.5,8.4,5.6l0.3,0.3
		c2,1.3,3.8,2.9,5.9,4.1c0.8,0.1,1.2,0.1,1.7,0.1c-0.3-0.3-0.6-0.8-0.9-1.1c-0.2-0.4-0.2-0.4-0.2-0.4c4.8,1.7,8.1,6,12.9,7.9
		c0.9,0.6,2,0.7,2.8,1.4c-0.4,0.5-0.5,0.5-0.6,0.5c-2.9-1.6-2.9-1.6-3.9-2.4c-0.3-0.3-0.7-0.6-1.1-0.9c0,0-5.1-3.6-6.9-3.4l-0.4,0.5
		c0.9,1.4,8.5,8.6,8.5,8.7l-0.7,0.1c0.1,0.4,0.1,0.9,0.1,1.4c0.4,0.5,0.6,0.8,0.8,0.9l0.4,0.6c-1,0-1,0-2.7-0.8
		c-1.2-0.2-1.9-0.2-2.7-0.2l-0.7-0.3c-0.2-0.4-0.5-0.8-0.7-1.2c0.9,0,1.8,0.3,2.8,0.3c0.2-0.7,0.4-1.4-2.1-4.5
		c-0.1-0.4-0.1-0.4-11.9-9.6c-0.5-0.4-0.8-0.6-1-0.7c-3.8-3.3-4-3.5-9.4-6.5c-1.5-1.1-3-2.1-4.4-3.1c0.2,0,0.6-0.1,0.9,0l-4.4-2.9
		c-1-0.1-1.8-0.6-2.8-0.7l-0.5,0l-0.7-0.1l0.1,0.7l-0.7,0.1c1.3,1.5,6.4,5.7,6.5,5.8c-0.5,0.5-0.6,0.5-0.7,0.5l0.4,0.7
		c0.6,0.4,0.6,0.5,0.8,0.6l0.5,0.4c0.4,0.2,0.5,0.2,0.7,0.2c0.7,0.4,3.7,2,4,3.1c0.9,1.7,2.6,2.5,8.4,5.1c2.2,1.1,2.2,1.1,4.4,3.4
		c-0.4,0-0.6,0-0.7,0c-0.7,0-1.3,0-14.8-6.1c-1-0.1-1.6-0.1-2.1-0.1c-0.7-0.3-1.3-0.7-1.9-1c-0.8-0.1-1.5-0.1-2.1-0.1
		c-1.6-0.6-3.1-1.5-4.7-2.1c-0.7-0.3-1.3-0.8-2-0.9c-0.6-0.1-0.6-0.1-0.7-0.1v0.7c3.5,3.2,9.2,2.9,12,7.4c-0.5,0.5-0.6,0.5-0.7,0.5
		c0,0.7,0.5,1.3,0.6,1.9l-0.6-0.1c-2.7-2.9-2.7-2.9-3.1-3.2c-0.4-0.1-0.5-0.1-0.7-0.1l-0.2,0.7l0.4,0.6l-0.6,0.4h-0.4l-0.7-0.1
		c12.7,13.9,24.6,30.2,35.2,48.5c53.2,0.2,81.5-0.9,79.6-2.9l-1.5-1.5c-22.4-22-22.4-22-34.9-31.7
		C759.5,212.6,755.8,210,743.5,203.5 M808,460.4l0.2-0.1c-0.2-1.2-0.3-2.3-0.7-2.9c-0.3-0.5-1-0.3-1.4-0.6l-1.4-0.9
		c-0.5-0.9-0.1-2-0.5-3c-1-2.2-2.4-2.4-3.2-2.3c-2.2,0.1,0-3.2-0.9-4.6l-1.7-1c-0.5,0-1,0-1.5,0c0.2,2.5,0.2,2.5-0.2,3.2
		c0.3,9.2,0.5,18.5,0.4,27.8c0.2-0.1,0.2-0.1,0.8,0.1c0.4,0,0.6,0,0.9,0c0.3,0,0.5-0.1,0.8-0.1c0.1-0.6,0.3-1.4,0.4-2
		c0.1-0.4,0.3-0.7,0.4-1.1v-0.3c-0.1-1.4,1.1-3.6,2.2-3.7l0.4,0c0.4,0.4,0.6,1.1,1.3,1.3c0.7-2.8-0.2-5.8,0.9-8.7
		c0.1-0.3,0.2-0.5,1.4-0.5C806.8,461.1,807.2,460.9,808,460.4 M899.1,430.9c-1.6-9.4-3.7-21.9-5.8-31.2c0.7,2.7-37.6,4.1-107.9,3.8
		c1.4,10.1,2.6,20.3,3.3,30.7c1,1.6,0.7,4.1,3,4.9c1.6,0,2.9,0,4.2,0c2.5-0.8,3.2,1.9,4.9,2.6c1.3,0,2.6,0,3.8,0
		c0.5,0.2,1.1,0.5,1.6,0.8h6.1l4.3-1c1.3,0,2.6,0,3.9,0c0.1,0,6.3,5.5,6.7,10.1c0.3,0,0.6,0.1,0.9,0.1c0.3,0.5,0.3,0.5,1.2,2.3
		c0.9,0,1.1,0,1.3,0c0.9,0.1,1.3,0.1,3.8,1.9c-5.8,0.3-2.9,3.4-2.9,3.4c2.4,1.7,1.9,6.1,5.9,6.1c1.8-2.3,1.8-2.3,2.4-2.5
		c0.2-0.5,0.3-1.2,0.5-1.7c0.2-0.1,0.6-0.3,0.8-0.4c2.6,1.9,2.7,11.7,2.7,11.8c0,1.4,0,2.1,0,2.9c-1.6,11.5,5.3,21.8,4.4,33.1
		c0,0.4-0.1,0.7-0.1,1c-1.2,6.3,1.4,12.3,1.8,18.4c0.2,0.5,0.5,1.1,0.7,1.6c0.2,0,0.6,0.1,0.8,0.1c4-3.4,4-3.4,9.2-26
		c0.2-1.9,0.3-3.9,0.4-5.9c0.3-5.8,0.3-5.8,1.2-7c5.4,0.3,9.9-18.2,10-18.4c0.1,0,0.1,0,1.9-3.7c0.5-0.1,0.6-0.1,0.6-0.1h0.1l0,0h0
		h0h0.1l0,0h0c0.9-0.9,0.9-0.9,1-6.9c0.6-0.8,1.2-0.8,1.8-0.9l0.6,0.6c0.5,0.1,0.6,0.1,0.6,0.1c0.6-1.3,1.7-2.4,1.8-3.9
		c0.6-0.2,1.2-0.2,1.7-0.2c0-1-0.1-2.1-0.2-3.1l0.8,0.2c1.3,2.8,1.8,6.6,2.5,12.8c1.1,3.1,1.1,3.1,1.4,4.2c0,0.5,0,0.9,0,1.2
		c-0.1,1.2-0.1,1.2-0.1,2.8v0.4l0.8,0c2.3,4.5-1.6,9.2,0.7,13.7c0.5-0.1,0.6-0.1,0.7-0.1c0.5-1.1,0.6-1.2,1.4-2.3
		c0.2-0.5,0.2-0.9,0.2-1.3c0-0.4,0-0.7,0.1-1.1c0.1-0.3,0.2-0.6,0.2-0.9c2.8,2.7,2.8,18.2,2.8,18.2c1,1.7,0.2,3.6,0.5,5.3
		c0.2,0.3,0.2,0.3,0.3,0.3l0.3-0.8c0.8,3.4,3.5,4.8,4.4-3.7c0.1-1.3,0.3-2.5,0.4-3.8c0.7-7.5,1.6-32.3,1.5-33.5
		c0-2.1-0.1-4.2-0.2-6.3l0.1-0.1c0-0.9,0-1.8,0-2.7c0-0.7,0.1-0.7,0.1-0.7C900.7,448.5,900.3,438.4,899.1,430.9 M740.4,632.7
		c0.1-0.3,0.2-0.5,0.3-0.8l2.4-9.3c-0.1-0.5-0.6-1.8-3.8-3.1c-0.9,3.3-1,3.3-1.1,3.5c-0.6,0.8-0.6,0.8-5.3,3.8
		c-0.4,0.2-1.6,2.5-1.6,2.7c-0.1,0.7-0.2,0.9-0.3,1.1c-0.5,0.5-1.2-0.1-1.7,0.3c-0.9,0.9-0.9,2.3-1.9,3.1c-2.6,2-5.6-0.3-8.2,0.8
		c-0.8,0.3-1.7,0.3-2.3,1c-0.8,1-0.5,2.3-1.1,3.3c-0.6,1.1-1.9,1.6-2.4,2.7c0,0-1.8,5.3-1.3,6c0.5,0.6,0.5,0.8,0.4,1.2
		c0,0-0.7,2.5-1,2.8c-0.3,0.5-0.6,0.4-1.1,0.2c-0.3-0.1-0.3-0.1-2.7,2.4c-1.3,1.3-0.9,3.6-2.6,4.7c-0.6,0.4-0.6,0.4-0.8,0.8
		c-0.1,0.3-0.2,0.5-0.3,0.8c-0.4,1.3,0,2.6-0.3,3.8c-0.2,0.5-0.4,1-0.6,1.5c-0.7,2.6-0.7,2.6-1.4,4.3c1.5,0.1,3,0,4.5,0.1
		c0,0.4-0.1,0.8-0.1,1.2c1.7,0.6,6.1,1.7,10-2.4c2-2.1,2.2-5.2,3.8-7.6c1-1.5,2.9-2.1,3.9-3.6c1.4-2.1,1.3-4.8,2.9-6.8
		c1-1.2,2.7-1.1,3.9-1.9c0.7-0.4,1.6-0.3,2.1-1.1c1-1.6,0-3.7,1.2-5.3c0.8-1.1,1.9-1.8,2.5-3.1c0.2-0.6,0.4-1.1,0.6-1.7
		c0.2-0.5,0.1-1.1,0.2-1.7c0.1-0.3,0.2-0.6,0.3-0.8C738.1,634.3,739.7,634,740.4,632.7 M769.1,516.5c0.1-1.3,0.2-2.7-1.2-4.4
		c-5.7-0.4-9.7,6.2-15.9,3.8c-0.6,0-1.2,0-3.3,0.1c-4.6,0.8-6.2,0.4-8.8-0.8c-2.1-4.5-2.1-4.5-2.1-6.4c-0.5-0.3-1.2-0.6-1.6-0.9
		c-0.4-1.3-0.9-3.1-0.9-4.5c-14.2-11.7-26.4-21.8-23.5-32.3c0-0.7,0-1.4,0-3.8c-0.2-1.1-0.5-2.7-1.1-3.6
		c-0.2-0.4-23.6-44.2-23.8-51.8c-2.3-1.9-5.5-2.2-7.8-4.1c-0.3,0-0.6,0-2.3,0.2c-1,0.5-2.4,1.2-3.4,1.7c-0.3,0-0.7,0-1,0
		c-13.8-3-26.4-10.9-41.1-10.5c-0.3,11-0.3,11-1.2,12.2c-0.6,0.1-1.3,0.2-1.8,0.2c-0.6,0-1.2,0-2.7,0c-3.2-0.6-4.4-4.2-7.6-4.7
		c-3.2-0.1-6.4-0.2-10.2-1.8c-1.6-6.5-11.6-6.8-11.7-6.8c-4.8,0-4.8,0-10.6-18.2c0.9-0.9,0.9-0.9,4.7-2.2c-0.2-0.6-0.4-1.3-0.5-1.8
		c-1.8-0.5-3.5-1.4-5.3-2c-13.1,0.7-13.1,0.7-19.2,4c-3.5-3-9.5-8.1-16-0.9c-3.1-0.1-6.1-0.2-9.2-0.3c-0.4,0.7-0.4,0.7-11.2,5.9
		c-0.3,0-0.6,0-1.3-0.1c-3.7-1-8,0.5-11.1-2.8c-0.7-0.1-1.6-0.2-2.3-0.3c-1.5,2.3-2.1,6.9-2.1,6.9c-1.8,1.2-2.3,1.5-6.9,0.9
		c-0.4,2.7-0.7,5.4-1,8.1c-2.3-0.1-4.5-0.2-7.1,1.2c-1.1,4.3-2.5,8.5-3.2,12.8c-0.1,1.2-0.3,2.3-0.4,3.5c-1.8-0.1-3.6-0.2-5.5-0.2
		c-1,5.4-7.1,8.9-9.9,8.7c-3.5,6.4-8.7,11.8-10.7,19.1c-0.5,0-1.2-0.1-1.7-0.1c0,0,0,0-1.3,0.3c-0.6,0-1.4,0.1-2,0.1
		c-0.7,11.3-1.2,11.5-5.6,13.2c-0.2,0.5-0.5,1.2-0.7,1.7c-0.1,1.2-0.1,2.4,0.7,3.8c6.8,1.5,6.8,1.5,7.4,2.8
		c-2.2,4.2-2.2,4.2-2.4,16.9c0,0.7,0,1.4,0,3.7c-0.2,0.4-0.2,0.4-3.6,3.7c0.2,2.5,1.1,4.8,1.6,7.3v2.1c0.3,9.1,14.8,18,14.9,18.1
		c-0.1,5.4-0.2,9.3,11.7,12.2c0.5,2,0.5,2,0.5,5.3c10.4,9.6,16.6,8.5,16.6,8.5c0.5-1.1,1.1-2.5,1.5-3.6c2.3-0.3,4.7,0.6,7,0.1
		c0.4,0,0.8,0,2.5,0.1c1.8,0,3.7,0.2,5.5,0.2c1.5,3.7,4.7,3.1,12.6,1.6c2-4.9,3.9-4.7,12.1-3.7c0.3,0,0.6,0,0.9,0
		c5.1-4.3,9.5-2.6,10.8-2c1.7,8.3,3.3,8.7,6.7,9.6c5.6,0.2,11.2,0.4,16.8,0.5c0,2-0.1,4-0.4,7.2c0,0.1-2,14.8-3.6,18.2
		c-0.5,0-1.2,0-1.7,0c-0.2,0.5-0.6,1.2-0.8,1.7c12.9,7.2,13.3,22.3,20.6,33c-0.2,0.5-0.4,1.1-0.5,1.6c0,0.6,0,1.2,0,1.8
		c0.3,3.5,0.6,3.6,2.6,4.5c0,9.9-8.6,17-8.8,26.8c-0.1,5.4,0.3,5.7,3.5,7.5c0.5,5.1,0.6,6.6,4.9,9.1c1.6,7.3,1.6,7.3,2.6,8.5
		c-0.1,2.6-0.2,5.2-0.3,7.8c0,0.1,4.5,15.3,10.3,21.4c-0.3,2-0.4,2.5,1.3,5.1c0,0.2-0.1,0.4-0.5,1.1c-0.9,0.6-1.9,1.5-2.4,2.4
		c0.4,0.3,0.9,0.7,1.3,1c0.5,0,0.9,0,1.4,0c-0.3,2.2-0.3,2.6,2.3,3.9c2.2,0.1,4.3,0.1,6.9,0.2c3.1-1.1,3.1-1.1,5.4-1.4
		c2.8,0.1,5.6,0.1,9.5-0.9c0.2-0.5,0.4-1.1,0.6-1.6c7.8-1.1,7.8-1.1,8.8-3.5c0.2-0.1,22.3-11,19.8-22.8c0,0,10.2-5.8,14-7.5
		c0.8-3.4,0.8-3.4-0.3-15.1c9.8-7.9,23.2-11.3,29.6-23.4c0.2-0.8,0.4-1.7,0.8-3.2c0.3-1.1,0.3-2.6,0.1-3.7c0.8-3.4,1.6-6.9,1.6-11
		c-3.7-5.7,1.1-11.8-0.8-17.5l0.2-0.9C718.1,559.5,762.2,552.9,769.1,516.5 M408,591c-0.3-1-3.2-10-7.1-12.1
		c-1.1-0.1-2.2-0.1-3.3-0.2c-4.8-2.3-6.1-12-12.9-9c-1.3-0.1-2.6-0.2-5-0.7c-1.9-2.1-2.2-2.3-4.9-2.1c0.2,0.8,0.4,2,0.5,2.8
		c-3.5-0.8-3.7-1.4-3.7-3.2c0.3-0.3,0.7-0.7,1.1-1c-5.7-5.2-6.9-5.5-8.1-5.8c-0.2,0-0.4,0-1.1-0.4c-1.9-1.5-1.9-1.5-3.8-1.4
		c0.3,1.5,0.7,3.1,1,4.6c-0.8-0.1-1.5-0.1-2.3-0.2c-0.2-0.6-0.3-1.3-0.5-2c0-0.8,0.2-1.9,0.5-2.7c0.1-0.3,0.4-0.6,0.5-0.9
		c-0.6-1.4-0.6-1.4-4.1-3.5l-0.6,0c-0.2,0-0.3,0-1.1,0.1c0.7,2.9,0.7,2.9,0.1,4.2c-0.4-0.1-1-0.2-1.4-0.3c-0.1-0.7-0.3-1.3-0.5-2.5
		c0.4-0.7,1.1-1.6,1.7-2.2c-0.8-6.6-0.9-6.6-1.8-8.4c-0.4-0.1-1-0.1-1.4-0.2c-0.3-1.8-0.7-3.6-1.2-6c-1.5-4.7-5.1-7.9-7.7-11.8
		c-0.8-0.2-1.8-0.7-2.4-1.3c-0.2-0.3-0.6-0.7-0.9-0.9c-0.8,0.2-1.9,0.6-2.6,0.9c-0.3,0-0.5,0-0.8-0.1c0,0-7.6-10.7-9.3-13.5
		c0-0.3-0.1-0.7-1.1-1.9c-0.7-1.6-0.7-1.6-0.9-4.2c-0.1,0-0.3,0-0.7,0.1c-0.3,0.3-0.7,0.7-1,0.9c-1.1-1-1.1-1-1.4-3.9
		c0.2-0.4,0.4-0.9,0.6-1.4c-0.4-0.7-1.1-1.5-1.7-2.1l-0.7,1.7c-0.1,0-0.1,0-0.4-0.4c-0.4-0.2-0.9-0.4-1.3-0.5c0,0.9-0.1,2-0.1,2.9
		c-0.3,0.3-0.8,0.6-1.1,0.9c-0.7-2.6-0.7-2.6-1.9-3.7c-0.5-0.1-1-0.1-1.6-0.4c-0.3-0.3-0.7-0.7-1-1c-0.1-1-0.1-2.1-1.2-4
		c-0.2-0.7-0.9-1.7-1.6-2.1c0,0.1,0,10.8-0.5,14c-2.1-9.4-1.1-13.9-0.7-16.2l-0.1-1.1c-0.2,0-0.3,0-0.6,0c-0.5,1.4-0.5,1.4-0.3,4.2
		c-0.4-0.1-0.8-0.1-1.4,0.8c-0.2,0.8-0.7,1.9-1.3,2.5c0.2,2,0.3,4,0.5,6.9c-3.8,11.5,4.5,21.6,3.4,32.8c0.8,3.4,0.8,3.4,0.9,5.1
		c0.6,4.2,0.6,4.2,1.5,7.7c-0.1,0-0.2-0.1,0,1c1.9,6.8,1.9,6.8,2.7,8.3c0.2,0.6,0.4,1.3,0.7,2.3c0,0,0.4,3.7,3.1,10.9
		c0.1,0.3,0.2,0.6,0.6,1.8c2.2,6.4,5.4,12.3,8.1,18.5c0.3,0.7,0.6,1.4,1.2,2.7c4.3,8.7,14.2,29.1,23.5,36.1c1.7,3,3.5,5.9,5.6,9.2
		c0.5,0.8,1.1,1.8,1.6,2.5l0.2,0.4c0.2,0.3,0.4,0.6,1.1,1.6c0.2,0.4,0.6,0.9,0.9,1.3c0.1,0.1,0.2,0.3,0.4,0.7
		c1.5,2.4,1.5,2.4,2.3,3.5l0.1,0.2c0.2,0.3,0.5,0.7,1.4,1.8c0.2,0.4,0.6,0.8,0.8,1.2l0.3,0.4c0.2,0.3,0.4,0.5,0.6,0.8
		c0.9,1.4,1.1,1.8,2.7,3.7c0.2,0.3,0.4,0.5,0.6,0.8c0.2,0.3,0.4,0.5,0.8,1.1c1.9,2.7,3.7,5.4,5.7,8c0.1,0.1,6.7,8.5,8.8,11
		c0.1,0.1,0.3,0.3,0.6,0.7c5.4,5.9,11.2,11.3,16.5,17.3c0.5,0.4,0.9,0.9,2.3,2.2c0.4,0.3,0.8,0.7,1.1,1
		c17.2,15.1,27.5,17.4,26.3,16.5c-1-1.1-1-1.1-4.4-3.7c-0.6-0.5-1.1-0.9-1.7-1.4c0.4,0,0.7,0.1,1.2,0c0.2,0,0.3,0,0.8-0.5
		c0.4,0,0.8,0.1,2.1,0.3c-1.7-1.6-2.8-3.7-4.2-5.5l-1-1.2c-0.7-0.7-1.4-1.3-2-2c-0.1,0-0.2,0-0.8-0.2c-0.4-0.4-0.9-0.9-2.2-2.2
		c-2-1.5-4.2-2.7-6-4.4c0.4,0,0.8,0.1,1.3,0.1c4.8,2.2,4.8,2.2,5.9,0.7c-7.4-10.9-7.5-12.5-7.5-13.5c1,1,1.7,2.2,2.9,3
		c-2.8-9.8-12.7-16.8-10.9-28.3c0.8,0.1,1.6,0.1,2.6,0.1c0.3-0.8,0.4-1.9,0.4-2.8c2.1,0.1,4.2,0.3,6.4,0.4c-0.3-0.8-0.7-1.9-0.8-2.7
		l0.4-0.2c-0.4-4.1-0.4-4.1-0.7-5.4c0.2-0.3,0.6-0.8,0.8-1.1c-1.4-3.2-1.5-3.4-1.7-5.8l0.5-0.5c-0.4-2.5-1.7-4.7-2.4-7.1
		c-0.1-0.3-0.3-0.6-0.4-1.7c-0.3-2.8-0.8-4.4-1.3-5.7c-0.2-0.4-0.3-0.8-0.9-2.1c-0.2-0.4-0.5-0.9-0.7-1.3c-0.2-0.7-0.5-1.3-1.2-2.8
		c-0.7-1.8-1.3-3.5-1.9-5.3c0.2,0,0.2,0,2.6-7.2c0.4-0.1,0.9-0.3,1.3-0.4c0.1-0.4,0.3-1,0.5-1.4c0,0,1.3-5.8,1.8-8.8
		C408.6,593.5,408.6,593.5,408,591 M469,746"/>
	<path class="st0" d="M868,681c0,0-89,158-286,162c-198.8,4-412-179-341.1-454.9c0.7-2.7,0.3-5.6-1.2-7.9
		C229.8,364,186.6,299.4,105,249c0,0,87,16,150,106c0,0,40-108,178-186l-55,54c0,0-77,73-99,166c-22.3,94.2-0.1,197.2,58.5,273.8
		c57,74.5,141.6,119.8,234.7,130.1c16.6,1.8,33.4,1.6,50-0.5c34.7-4.5,98.6-16.1,135.8-43.5C758,749,861,681,868,681z"/>
	<path class="st0" d="M211,367c0,0-24,12-49,10c-14.5-1.2-28-2.5-41.9-7.6c-32-11.7-57.1-36.1-72.9-66c-8.3-15.8-14.2-33.1-21-49.7
		c-6.3-15.4-12.5-30.8-18.8-46.1C5,201.4,2.5,195.2,0,189c0,0,32.1-6.6,89-9.7c4-0.2,8.1-0.1,12.1,0.2
		c24.4,2.4,103.4,15.3,116.9,84.5c0,0-32-78-174-53c8.9,25,16.8,50.7,27,75.1c3.6,8.6,8.2,16.8,13.4,24.4
		c17.3,25.1,42.7,43.6,72.2,51.7C174.3,367,192.8,368.3,211,367z"/>
	<path class="st0" d="M340,303c0,0,160-46,163-180c0,0,3-93-17-123c2,3.1-3.4,16.5-4.3,19.5c-4.8,15.4-12.6,30-22.7,42.6
		c-10.1,12.6-22.7,23.2-36.7,31.3c-23.6,13.7-51.6,18.7-76.1,30.8c-17.9,8.9-34.7,19.4-49,33.5c-25,24.7-39.4,57.1-42.3,92.3
		c0,0-3,47,25,62c0,0-18-26-11-55c0,0,12.4-74.1,72.3-101c2.7-1.2,5.4-2.2,8.3-3c18-5.5,100.3-31.4,122.5-58.9c0,0,8.8,41.5-8.4,87
		c-3.4,9.2-8.2,17.8-13.9,25.7C435.1,226.7,398.5,270.8,340,303z"/>
	<path class="st0" d="M584,172.6c-14.3-1.4-75-4.2-93.7,49.7c-0.1,0.2,0.2,0.5,0.4,0.3l0,0c6.8-3.7,14.4-5.6,22.1-5.6h1
		c4.3,0,8.5-1.5,11.8-4.3c7.1-6.1,23.8-18.6,58.7-38.2C585.2,174,584.9,172.7,584,172.6z"/>
	<g>
		<g>
			<path class="st0" d="M973.7,610.5c0,7.5-3.7,11.3-11.1,11.3h-89.6c-7.4,0-11.1-3.8-11.1-11.3v-71.8c0-7.5,3.7-11.3,11.1-11.3
				h89.5c3.5,0,6.3,1.1,8.3,3.3c2,2.2,3,4.9,3,8c0,3.1-1,5.8-3,8c-2,2.2-4.8,3.3-8.3,3.3H884v49.3h67.4v-13.3h-33.7
				c-3.5,0-6.3-1.1-8.3-3.3c-2-2.2-3-4.9-3-8c0-3.1,1-5.8,3-8c2-2.2,4.8-3.3,8.3-3.3h55.9V610.5z"/>
			<path class="st0" d="M1104.6,574.6c0,7.5-3.7,11.3-11.1,11.3h-31.3c6.3,2.5,18.1,7.3,35.4,14.2c4.6,1.9,7,5.2,7,10
				c0,3-1,5.7-3,8.1c-2,2.4-4.6,3.6-7.6,3.6c-1.5,0-3.1-0.3-4.6-1l-74.4-29.9v19.7c0,3.6-1.1,6.3-3.3,8.3c-2.2,1.9-4.8,2.9-7.8,2.9
				c-3,0-5.6-1-7.8-2.9c-2.2-1.9-3.3-4.7-3.3-8.2v-72c0-7.6,3.7-11.3,11.1-11.3h89.6c7.4,0,11.1,3.8,11.1,11.3V574.6z M1082.4,563.3
				v-13.4H1015v13.4H1082.4z"/>
			<path class="st0" d="M1225.8,621.8h-89.6c-7.4,0-11.1-3.8-11.1-11.3v-71.8c0-7.5,3.7-11.3,11.1-11.3h89.6c3.5,0,6.3,1.1,8.3,3.3
				c2,2.2,3,4.9,3,8c0,3.1-1,5.8-3,8c-2,2.2-4.8,3.3-8.3,3.3h-78.5v13.4h78.5c3.5,0,6.3,1.1,8.3,3.3c2,2.2,3,4.9,3,8
				c0,3.1-1,5.8-3,8c-2,2.2-4.8,3.3-8.3,3.3h-78.5v13.3h78.5c3.5,0,6.3,1.1,8.3,3.3c2,2.2,3,4.9,3,8c0,3.1-1,5.8-3,8
				C1232.1,620.7,1229.4,621.8,1225.8,621.8z"/>
			<path class="st0" d="M1354.5,621.8h-89.6c-7.4,0-11.1-3.8-11.1-11.3v-71.8c0-7.5,3.7-11.3,11.1-11.3h89.6c3.5,0,6.3,1.1,8.3,3.3
				c2,2.2,3,4.9,3,8c0,3.1-1,5.8-3,8c-2,2.2-4.8,3.3-8.3,3.3h-78.5v13.4h78.5c3.5,0,6.3,1.1,8.3,3.3c2,2.2,3,4.9,3,8
				c0,3.1-1,5.8-3,8c-2,2.2-4.8,3.3-8.3,3.3h-78.5v13.3h78.5c3.5,0,6.3,1.1,8.3,3.3c2,2.2,3,4.9,3,8c0,3.1-1,5.8-3,8
				C1360.8,620.7,1358,621.8,1354.5,621.8z"/>
			<path class="st0" d="M1494.4,610.5c0,8.4-3,12.6-9.1,12.6c-2.9,0-5.9-1.2-9-3.7l-71.7-57.3v48.3c0,3.5-1.1,6.3-3.3,8.2
				c-2.2,1.9-4.8,2.9-7.9,2.9c-3,0-5.5-1-7.7-2.9c-2.2-1.9-3.3-4.7-3.3-8.2v-71.7c0-8.4,3-12.6,9.1-12.6c2.9,0,5.9,1.3,9.1,3.8
				l71.7,57.5v-48.6c0-3.6,1.1-6.3,3.3-8.2c2.2-1.9,4.8-2.9,7.7-2.9c3.1,0,5.7,1,7.9,2.9c2.2,1.9,3.3,4.7,3.3,8.2V610.5z"/>
		</g>
		<g>
			<path class="st0" d="M1675.7,622.1h-89.6c-7.4,0-11.1-3.8-11.1-11.3v-71.8c0-7.5,3.7-11.3,11.1-11.3h89.6c3.5,0,6.3,1.1,8.3,3.3
				c2,2.2,3,4.9,3,8c0,3.1-1,5.8-3,8c-2,2.2-4.8,3.3-8.3,3.3h-78.5v13.4h78.5c3.5,0,6.3,1.1,8.3,3.3c2,2.2,3,4.9,3,8
				c0,3.1-1,5.8-3,8c-2,2.2-4.8,3.3-8.3,3.3h-78.5v13.3h78.5c3.5,0,6.3,1.1,8.3,3.3c2,2.2,3,4.9,3,8c0,3.1-1,5.8-3,8
				C1682,621,1679.2,622.1,1675.7,622.1z"/>
			<path class="st0" d="M1781.6,597h-44.2l-13.1,19.9c-2.3,3.5-5.4,5.3-9.3,5.3c-3.1,0-5.8-1.1-8.1-3.2c-2.3-2.2-3.5-4.8-3.5-7.9
				c0-2.1,0.6-4.2,1.8-6.1l39.3-63.6c5.1-8.2,10.1-12.3,14.9-12.3c3.3,0,6.3,1.3,9,3.8c1.7,1.6,3.8,4.4,6.3,8.5L1814,605
				c1.2,2,1.8,4.1,1.8,6.2c0,3.1-1.2,5.8-3.6,7.9c-2.4,2.1-5.1,3.2-8.1,3.2c-3.9,0-7-1.7-9.3-5.2L1781.6,597z M1748.8,577.2h21.2
				l-10.6-17.2L1748.8,577.2z"/>
			<path class="st0" d="M1944.5,574.9c0,7.5-3.7,11.3-11.1,11.3h-31.3c6.3,2.5,18.1,7.3,35.4,14.2c4.6,1.9,7,5.2,7,10
				c0,3-1,5.7-3,8.1c-2,2.4-4.6,3.6-7.6,3.6c-1.5,0-3.1-0.3-4.6-1l-74.4-29.9v19.7c0,3.6-1.1,6.3-3.3,8.3c-2.2,1.9-4.8,2.9-7.8,2.9
				c-3,0-5.6-1-7.8-2.9c-2.2-1.9-3.3-4.7-3.3-8.2v-72c0-7.6,3.7-11.3,11.1-11.3h89.6c7.4,0,11.1,3.8,11.1,11.3V574.9z M1922.2,563.6
				v-13.4h-67.4v13.4H1922.2z"/>
			<path class="st0" d="M2054.8,550.2h-33.5v60.6c0,3.6-1.1,6.3-3.3,8.2c-2.2,1.9-4.8,2.9-7.9,2.9c-3,0-5.5-1-7.7-2.9
				c-2.2-1.9-3.3-4.7-3.3-8.2v-60.6h-33.8c-3.6,0-6.3-1.1-8.3-3.3c-2-2.2-3-4.9-3-8c0-3.1,1-5.8,3-8c2-2.2,4.8-3.3,8.3-3.3h89.6
				c3.5,0,6.3,1.1,8.3,3.3c2,2.2,3,4.9,3,8c0,3.1-1,5.8-3,8C2061.1,549.1,2058.4,550.2,2054.8,550.2z"/>
			<path class="st0" d="M2192.1,610.8c0,3.5-1.1,6.3-3.3,8.2c-2.2,1.9-4.8,2.9-7.9,2.9c-3,0-5.5-1-7.7-2.9c-2.2-1.9-3.3-4.7-3.3-8.2
				v-24.6h-67.6v24.6c0,3.5-1.1,6.3-3.3,8.2c-2.2,1.9-4.8,2.9-7.9,2.9c-3,0-5.5-1-7.7-2.9c-2.2-1.9-3.3-4.7-3.3-8.2v-71.7
				c0-3.5,1.1-6.3,3.3-8.2c2.2-1.9,4.8-2.9,7.7-2.9c3.1,0,5.7,1,7.9,2.9c2.2,1.9,3.3,4.7,3.3,8.2v24.6h67.6v-24.6
				c0-3.5,1.1-6.3,3.3-8.2c2.2-1.9,4.8-2.9,7.7-2.9c3.1,0,5.7,1,7.9,2.9c2.2,1.9,3.3,4.7,3.3,8.2V610.8z"/>
		</g>
	</g>
	<polygon class="st1" points="872,681 1282,677 1282,687 	"/>
	<g>
		<g>
			<path class="st1" d="M1316.9,659.2v3.7c-1.3,0.4-2.3,0.9-3,1.7s-1,1.7-1,2.8c0,1.1,0.3,2,0.9,2.8c0.6,0.8,1.5,1.6,2.8,2.3
				c0.9,0.5,2.9,1.4,6,2.8c1.9,0.8,3.4,1.6,4.4,2.2c1,0.7,2,1.5,3,2.5c2.5,2.6,3.7,5.7,3.7,9.4c0,2.7-0.7,5.2-2,7.5
				c-1.4,2.3-3.2,4-5.6,5.3c-1.3,0.7-2.7,1.2-4.2,1.6c-1.5,0.4-2.9,0.6-4.2,0.6v-3.6c1.8-0.4,3.2-1.1,4-1.9c0.8-0.8,1.2-1.9,1.2-3.2
				c0-1.4-0.6-2.7-1.9-3.7c-0.8-0.7-2.5-1.6-4.8-2.6c-2.6-1.1-4.4-2-5.3-2.4c-1-0.5-1.9-1.1-2.8-1.7c-4-2.8-6-6.6-6-11.3
				c0-2.4,0.5-4.6,1.5-6.7c1-2,2.4-3.7,4.2-4.9C1310.2,660.3,1313.2,659.4,1316.9,659.2z M1315.2,700.6v3.6c-1.7,0-3.7-0.5-5.7-1.5
				c-0.8-0.4-1.3-0.6-1.6-0.7c-0.3-0.1-0.6-0.2-0.9-0.2c-0.4,0-0.7,0.1-1,0.2c-0.2,0.1-0.6,0.5-1,1c-0.4,0.5-0.8,0.7-1.2,0.7
				c-1.2,0-1.8-0.9-1.8-2.7v-11.6c0-0.6,0.2-1.1,0.5-1.5c0.3-0.4,0.8-0.6,1.3-0.7c0.5,0,0.8,0.1,1.1,0.4c0.3,0.3,0.5,0.8,0.7,1.5
				c0.5,1.8,1.2,3.5,2.1,5.1c0.9,1.6,2,2.9,3.2,4C1312.2,699.5,1313.6,700.3,1315.2,700.6z M1319.4,662.8v-3.5
				c1.3,0.1,2.4,0.2,3.3,0.5c0.9,0.2,2.3,0.7,4,1.4c0.4,0.2,0.8,0.3,1,0.3c0.4,0,0.7-0.1,0.9-0.4l0.7-0.9c0.3-0.5,0.8-0.7,1.2-0.7
				c0.6,0,1,0.2,1.3,0.6c0.3,0.4,0.4,1.1,0.4,2v10.5c0,0.6-0.2,1.1-0.5,1.5c-0.3,0.4-0.8,0.6-1.3,0.6c-0.4,0-0.8-0.1-1.2-0.4
				c-0.2-0.2-0.3-0.4-0.5-0.6c-0.1-0.2-0.2-0.7-0.3-1.2c-0.2-1-0.6-2.1-1.2-3.2c-0.6-1.1-1.2-2.1-2-3
				C1323.6,664.5,1321.7,663.4,1319.4,662.8z"/>
			<path class="st1" d="M1359.9,690.7v-24.9c0-0.7-0.1-1.3-0.4-1.6c-0.1-0.2-0.2-0.3-0.4-0.4c-0.1-0.1-0.5-0.2-1.2-0.4
				c-0.8-0.3-1.3-0.8-1.3-1.7c0-0.5,0.2-1,0.6-1.3c0.4-0.3,1-0.4,1.8-0.4h0.8h14.2h0.8l1.1,0.1c0.4,0.1,0.7,0.3,0.9,0.6
				c0.2,0.3,0.3,0.6,0.3,1c0,0.8-0.4,1.4-1.3,1.7c-0.7,0.2-1.1,0.4-1.2,0.4c-0.1,0.1-0.2,0.2-0.4,0.4c-0.3,0.3-0.4,0.9-0.4,1.6v26.6
				c0,1.8,0,3.1,0.1,3.8c0.1,0.7,0.3,1.3,0.6,1.9c0.3,0.5,0.6,0.9,0.9,1.1c0.3,0.2,1,0.5,1.9,0.8v4.2h-0.7c-2.8,0-5-0.2-6.9-0.7
				c-2.1-0.6-4-1.4-5.6-2.5c-1.6-1.1-2.8-2.4-3.4-3.8C1360.2,695.7,1359.9,693.5,1359.9,690.7z M1380.5,704.2V700
				c2.1-0.3,3.9-1.1,5.3-2.6c1.6-1.7,2.4-4.1,2.4-7.2v-20.7c0-2.9-1.1-4.9-3.3-6.1c-0.7-0.3-1.1-0.6-1.3-0.9
				c-0.2-0.2-0.3-0.6-0.3-1.1c0-0.6,0.2-0.9,0.6-1.2c0.4-0.2,1.1-0.3,2-0.3h7.8c0.7,0,1.1,0,1.3,0c0.2,0,0.4,0.1,0.7,0.2
				c0.5,0.3,0.8,0.8,0.8,1.3c0,0.5-0.2,0.9-0.5,1.2c-0.1,0.1-0.6,0.4-1.4,0.9c-0.9,0.5-1.7,1.3-2.2,2.3c-0.5,1-0.8,2.2-0.8,3.6v20.7
				c0,3.6-0.8,6.5-2.3,8.8c-1.1,1.7-2.8,3-4.9,4.1C1383.2,703.6,1382,704,1380.5,704.2z"/>
			<path class="st1" d="M1437,660v37.3c0,0.8,0.2,1.4,0.5,1.8c0.2,0.2,0.3,0.3,0.5,0.4c0.1,0.1,0.6,0.2,1.5,0.4
				c1,0.2,1.5,0.8,1.5,1.7c0,0.6-0.3,1-0.8,1.3c-0.4,0.3-1.1,0.4-2,0.4h-1.1h-14.2h-0.8c-0.8,0-1.3-0.1-1.8-0.4
				c-0.4-0.3-0.6-0.7-0.6-1.2c0-0.9,0.4-1.4,1.3-1.7c0.7-0.2,1.1-0.4,1.2-0.4c0.1-0.1,0.2-0.2,0.4-0.4c0.3-0.3,0.4-0.9,0.4-1.6
				v-31.8c0-0.7-0.1-1.3-0.4-1.6c-0.1-0.2-0.2-0.3-0.4-0.4c-0.1-0.1-0.5-0.2-1.2-0.4c-0.8-0.3-1.3-0.8-1.3-1.7
				c0-0.5,0.2-0.9,0.6-1.2c0.4-0.3,1-0.4,1.8-0.4h0.8H1437z M1446.8,682.1c1.9,0.3,3.4,0.6,4.5,1c1,0.4,2,0.8,2.8,1.5
				c0.9,0.7,1.6,1.4,2,2.3c0.5,0.9,0.7,1.9,0.7,2.9v6.6c0,0.7,0.2,1,0.7,1c0.2,0,0.3,0,0.4-0.1c0.1-0.1,0.3-0.3,0.5-0.6
				c0.5-0.7,1.1-1.1,1.6-1.1c0.4,0,0.7,0.2,1.1,0.6c0.4,0.4,0.5,0.8,0.5,1.1c0,0.7-0.3,1.5-0.9,2.4c-0.6,0.9-1.4,1.8-2.3,2.5
				c-0.9,0.7-1.8,1.2-2.8,1.5s-2.2,0.5-3.6,0.5c-2.8,0-5-0.8-6.5-2.4c-1.6-1.6-2.3-3.8-2.3-6.7v-5.3c0-1.2,0-1.9,0-2.1
				c-0.1-0.8-0.4-1.6-0.9-2.2c-0.6-0.7-1.5-1.2-2.6-1.3v-3.4c1.1-0.2,2-0.5,2.4-0.9c0.4-0.4,0.7-0.8,0.9-1.3
				c0.2-0.5,0.2-1.2,0.2-2.2v-8.4c0-1.3-0.3-2.3-0.8-3c-0.5-0.7-1.5-1.2-2.8-1.6V660h0.8c2.3,0,4.3,0.1,6,0.3c2.5,0.2,4.6,1,6.6,2.4
				c2.8,2,4.2,4.8,4.2,8.4c0,3-0.9,5.4-2.8,7.3c-0.8,0.8-1.7,1.5-2.7,2C1450.5,680.9,1448.9,681.5,1446.8,682.1z"/>
			<path class="st1" d="M1500.2,659.2v3.5c-1.9,0.4-2.8,1.9-2.8,4.4v29.5c0,1.1,0.2,2,0.5,2.6c0.3,0.5,0.9,0.9,1.7,1.3v3.6
				c-0.7,0-1.3-0.1-1.9-0.2c-0.6-0.1-1.3-0.3-2.2-0.6c-2.2-0.8-4.2-1.9-6-3.5c-1.8-1.6-3.3-3.4-4.4-5.6c-1.8-3.4-2.7-7.4-2.7-12.1
				c0-4.5,0.8-8.5,2.4-12c1.6-3.5,3.9-6.2,6.9-8.2c1.7-1.2,3.6-2,5.6-2.5C1498.1,659.3,1499.1,659.2,1500.2,659.2z M1517.2,698
				c-0.8,0.8-2,1.7-3.4,2.6c-1.4,0.9-2.7,1.6-4,2.1c-1.1,0.4-2.4,0.8-3.8,1.1c-1.4,0.3-2.6,0.4-3.7,0.4v-3.6
				c0.6-0.1,1.1-0.3,1.4-0.5c0.3-0.2,0.6-0.5,0.8-0.9c0.4-0.7,0.5-1.5,0.5-2.5v-9.3c0-0.8-0.2-1.4-0.5-1.8c-0.1-0.2-0.3-0.3-0.4-0.4
				c-0.1-0.1-0.6-0.2-1.5-0.4c-1-0.3-1.5-0.8-1.5-1.8c0-0.5,0.2-1,0.7-1.3c0.5-0.3,1.2-0.4,2.1-0.4h1h11.6c1,0,1.6,0.1,2,0.4
				c0.4,0.3,0.6,0.7,0.6,1.4c0,0.4-0.1,0.7-0.2,1c-0.2,0.3-0.4,0.5-0.9,0.8c-0.4,0.3-0.7,0.6-0.8,0.8c-0.1,0.3-0.2,0.7-0.2,1.4V698z
				 M1502.8,662.6v-3.4c3.4,0.3,6.3,1,8.5,1.9c0.7,0.3,1.2,0.4,1.5,0.4c0.3,0,0.6-0.1,0.8-0.2c0.2-0.2,0.5-0.6,1.1-1.3
				c0.4-0.5,0.9-0.8,1.4-0.8c0.6,0,1,0.2,1.3,0.5s0.4,0.9,0.4,1.6v12.3c0,1.6-0.6,2.4-1.8,2.4c-0.6,0-1-0.2-1.3-0.5
				c-0.3-0.3-0.6-0.9-0.8-1.9c-0.3-1.2-0.9-2.6-1.7-4.1c-0.8-1.6-1.6-2.8-2.4-3.7c-0.9-1.1-1.8-1.8-2.9-2.3
				C1505.8,663,1504.4,662.7,1502.8,662.6z"/>
			<path class="st1" d="M1559.9,703.3h-14.2h-0.8c-0.8,0-1.3-0.1-1.8-0.4c-0.4-0.3-0.6-0.7-0.6-1.2c0-0.9,0.4-1.4,1.3-1.7
				c0.7-0.2,1.1-0.4,1.2-0.4c0.1-0.1,0.2-0.2,0.4-0.4c0.3-0.3,0.4-0.9,0.4-1.6v-31.8c0-0.7-0.1-1.3-0.4-1.6
				c-0.1-0.2-0.2-0.3-0.4-0.4c-0.1-0.1-0.5-0.2-1.2-0.4c-0.8-0.3-1.3-0.8-1.3-1.7c0-0.5,0.2-0.9,0.6-1.2c0.4-0.3,1-0.4,1.8-0.4h0.8
				h14.2h0.8c0.8,0,1.3,0.1,1.8,0.4c0.4,0.3,0.6,0.7,0.6,1.2c0,0.9-0.4,1.4-1.3,1.7c-0.7,0.2-1.1,0.4-1.2,0.4
				c-0.1,0.1-0.2,0.2-0.4,0.4c-0.3,0.3-0.4,0.9-0.4,1.6v31.8c0,0.7,0.1,1.3,0.4,1.6c0.1,0.2,0.2,0.3,0.4,0.4
				c0.1,0.1,0.5,0.2,1.2,0.4c0.8,0.3,1.3,0.8,1.3,1.7c0,0.5-0.2,0.9-0.6,1.2c-0.4,0.3-1,0.4-1.8,0.4H1559.9z"/>
			<path class="st1" d="M1604.3,659.2v3.8c-1.2,0.2-2.2,0.7-2.8,1.7c-0.6,0.9-0.9,2.2-0.9,3.9v26.2v1.4c0,0.5,0.1,1,0.3,1.5
				c0.2,0.5,0.5,1,0.8,1.4c0.3,0.4,0.7,0.7,1.1,0.9s0.9,0.3,1.6,0.4v3.9c-4.1,0-7.7-1.1-10.7-3.2c-2.7-1.9-4.7-4.4-6-7.6
				c-1.4-3.2-2-7-2-11.3c0-3.2,0.4-6.2,1.3-8.9c0.9-2.8,2.2-5.2,3.8-7.2c1.7-2.1,3.7-3.7,6.1-5c2.4-1.2,4.6-1.9,6.8-1.9
				L1604.3,659.2z M1606.8,663v-3.8c1,0.2,1.9,0.3,2.5,0.5s1.8,0.6,3.5,1.2c1.1,0.4,1.8,0.6,2.2,0.6c0.6,0,1.1-0.3,1.4-0.8l0.4-0.8
				c0.3-0.5,0.7-0.8,1.4-0.8c0.6,0,1,0.2,1.3,0.5c0.3,0.3,0.5,0.8,0.5,1.5v13.2c0,0.8-0.2,1.5-0.6,1.8s-0.8,0.6-1.3,0.6
				c-0.5,0-0.9-0.2-1.2-0.5c-0.3-0.3-0.6-0.9-0.7-1.6c-0.4-1.7-0.9-3-1.3-3.9c-0.9-2-1.9-3.6-3.1-4.9c-0.8-0.8-1.6-1.5-2.3-2
				C1608.6,663.4,1607.7,663.2,1606.8,663z M1606.9,704.2v-3.9c1.7-0.1,3.4-0.8,5.2-1.9c1-0.6,1.8-1.4,2.6-2.5
				c0.8-1,1.3-2.2,1.7-3.4c0.2-0.7,0.5-1.2,0.7-1.4c0.3-0.3,0.7-0.4,1.1-0.4c0.5,0,0.9,0.2,1.3,0.6c0.3,0.4,0.5,0.9,0.5,1.4
				c0,1-0.4,2.1-1.1,3.5c-0.7,1.4-1.7,2.6-2.8,3.7c-1.4,1.4-2.8,2.4-4.3,3.1C1610.4,703.7,1608.7,704.1,1606.9,704.2z"/>
			<path class="st1" d="M1653.9,668.1l1.6,6.6l-5.6,20.5c-0.2,0.6-0.3,1.1-0.3,1.7c0,1.3,0.6,2.3,1.9,2.9l1.1,0.5
				c0.7,0.3,1,0.8,1,1.6c0,1.1-0.8,1.6-2.3,1.6h-8.1c-0.8,0-1.4-0.2-1.9-0.5c-0.5-0.3-0.7-0.8-0.7-1.3c0-0.6,0.5-1.1,1.4-1.5
				c0.9-0.4,1.5-0.7,1.9-1c0.4-0.3,0.8-0.7,1.2-1.3c0.6-0.9,1.1-2,1.5-3.5L1653.9,668.1z M1656.1,660h12.8l8.8,37.3
				c0.2,0.7,0.4,1.2,0.6,1.7c0.2,0.4,0.6,0.7,1.3,1c0.5,0.2,0.9,0.5,1.1,0.7c0.2,0.2,0.3,0.6,0.3,1c0,1.1-0.8,1.7-2.5,1.7h-15.8
				c-0.6,0-1.1-0.2-1.5-0.5s-0.6-0.7-0.6-1.2c0-0.4,0.1-0.7,0.3-1c0.2-0.2,0.6-0.5,1.1-0.8c0.4-0.2,0.7-0.4,0.9-0.7
				c0.2-0.3,0.3-0.6,0.3-1c0-0.4,0-0.7-0.1-1l-1-4.6h-8.9l0.9-3.8h7.1l-5.8-25.8L1656.1,660z"/>
			<path class="st1" d="M1719.4,703.3h-14.1h-0.8c-0.8,0-1.3-0.1-1.8-0.4c-0.4-0.3-0.6-0.7-0.6-1.2c0-0.9,0.4-1.4,1.3-1.7
				c0.7-0.2,1.1-0.4,1.2-0.4c0.1-0.1,0.2-0.2,0.4-0.4c0.3-0.3,0.4-0.9,0.4-1.6v-31.8c0-0.7-0.1-1.3-0.4-1.6
				c-0.1-0.2-0.2-0.3-0.4-0.4c-0.1-0.1-0.5-0.2-1.2-0.4c-0.8-0.3-1.3-0.8-1.3-1.7c0-0.5,0.2-0.9,0.6-1.2c0.4-0.3,1-0.4,1.8-0.4h0.8
				h14.2h1.1c0.9,0,1.6,0.1,2,0.4c0.5,0.3,0.8,0.8,0.8,1.3c0,0.9-0.5,1.5-1.5,1.7c-0.8,0.2-1.3,0.3-1.5,0.4
				c-0.1,0.1-0.3,0.2-0.5,0.4c-0.3,0.4-0.5,1-0.5,1.8V703.3z M1722,703.3v-3.6c1-0.2,1.9-0.4,2.5-0.6c0.6-0.2,1.2-0.6,1.7-1
				c0.9-0.7,1.7-1.7,2.4-2.9c0.7-1.2,1.3-2.6,1.8-4.1c0.3-1.2,0.7-1.9,0.9-2.3c0.3-0.4,0.7-0.6,1.3-0.6c0.6,0,1,0.2,1.3,0.7
				c0.1,0.2,0.2,0.7,0.2,1.4v12.9H1722z"/>
		</g>
		<g>
			<path class="st1" d="M1811.5,658.9v3.8c-1.2,0.2-2.2,0.7-2.8,1.7c-0.6,0.9-0.9,2.2-0.9,3.9v26.2v1.4c0,0.5,0.1,1,0.3,1.5
				c0.2,0.5,0.5,1,0.8,1.4c0.3,0.4,0.7,0.7,1.1,0.9s0.9,0.3,1.6,0.4v3.9c-4.1,0-7.7-1.1-10.7-3.2c-2.7-1.9-4.7-4.4-6-7.6
				c-1.4-3.2-2-7-2-11.3c0-3.2,0.4-6.2,1.3-8.9c0.9-2.8,2.2-5.2,3.8-7.2c1.7-2.1,3.7-3.7,6.1-5c2.4-1.2,4.6-1.9,6.8-1.9
				L1811.5,658.9z M1814,662.8v-3.8c1,0.2,1.9,0.3,2.5,0.5s1.8,0.6,3.5,1.2c1.1,0.4,1.8,0.6,2.2,0.6c0.6,0,1.1-0.3,1.4-0.8l0.4-0.8
				c0.3-0.5,0.7-0.8,1.4-0.8c0.6,0,1,0.2,1.3,0.5c0.3,0.3,0.5,0.8,0.5,1.5v13.2c0,0.8-0.2,1.5-0.6,1.8s-0.8,0.6-1.3,0.6
				c-0.5,0-0.9-0.2-1.2-0.5c-0.3-0.3-0.6-0.9-0.7-1.6c-0.4-1.7-0.9-3-1.3-3.9c-0.9-2-1.9-3.6-3.1-4.9c-0.8-0.8-1.6-1.5-2.3-2
				C1815.8,663.2,1814.9,662.9,1814,662.8z M1814.1,703.9V700c1.7-0.1,3.4-0.8,5.2-1.9c1-0.6,1.8-1.4,2.6-2.5c0.8-1,1.3-2.2,1.7-3.4
				c0.2-0.7,0.5-1.2,0.7-1.4c0.3-0.3,0.7-0.4,1.1-0.4c0.5,0,0.9,0.2,1.3,0.6c0.3,0.4,0.5,0.9,0.5,1.4c0,1-0.4,2.1-1.1,3.5
				c-0.7,1.4-1.7,2.6-2.8,3.7c-1.4,1.4-2.8,2.4-4.3,3.1C1817.6,703.5,1815.9,703.8,1814.1,703.9z"/>
			<path class="st1" d="M1867.2,662.3c-1.1,0.4-1.8,0.9-2.3,1.6c-0.4,0.7-0.7,1.6-0.7,2.9v28.4c0,1.9,0.3,3.2,0.8,3.9
				c0.4,0.6,1.1,1.1,2.2,1.4v3.5c-4.7-0.4-8.6-2.1-11.8-5.3c-4.1-4.1-6.2-9.8-6.2-17.2c0-3.7,0.5-7,1.6-10c1.1-3,2.7-5.5,4.8-7.6
				c1.6-1.6,3.4-2.8,5.3-3.6c1.9-0.8,4-1.3,6.3-1.4V662.3z M1869.8,662.3v-3.4c2.3,0.1,4.4,0.6,6.3,1.4c1.9,0.8,3.7,2,5.3,3.6
				c4.3,4.2,6.5,10.1,6.5,17.6c0,7.3-2.1,13.1-6.2,17.2c-3.2,3.2-7.1,4.9-11.8,5.3v-3.5c0.5-0.1,1-0.3,1.3-0.5s0.6-0.5,0.8-0.9
				c0.6-0.9,0.9-2.2,0.9-3.9v-28.4c0-1.1-0.2-2-0.6-2.7c-0.3-0.4-0.6-0.8-0.9-1C1871,662.8,1870.5,662.5,1869.8,662.3z"/>
			<path class="st1" d="M1927,659.7l6.3,17.8l2.8-9.6v10.5l-7.3,24.6h-1.7l-12.3-36.5c-0.4-1.2-0.9-2.1-1.3-2.5
				c-0.3-0.3-0.8-0.5-1.4-0.6c-1.4-0.3-2.1-1-2.1-2c0-0.5,0.2-1,0.6-1.3s1-0.5,1.7-0.5H1927z M1914.7,674.3l3.4,9.6v9.6
				c0,1,0,1.7,0.1,2.1c0.1,0.4,0.2,0.9,0.5,1.4c0.4,0.9,1.1,1.6,1.8,2.1l1.2,0.8c0.8,0.5,1.2,1,1.2,1.6c0,1.1-0.8,1.6-2.4,1.6h-8
				c-1.6,0-2.4-0.5-2.4-1.6c0-0.3,0.1-0.6,0.2-0.8c0.1-0.2,0.4-0.4,0.8-0.6c2.3-1.3,3.5-3.5,3.5-6.6V674.3z M1938.7,659.7h14.1h0.9
				c1.6,0,2.4,0.5,2.4,1.7c0,0.9-0.4,1.4-1.3,1.7c-0.7,0.2-1.1,0.4-1.2,0.4c-0.1,0.1-0.2,0.2-0.4,0.4c-0.3,0.3-0.4,0.9-0.4,1.6v31.8
				c0,0.7,0.1,1.3,0.4,1.6c0.1,0.2,0.2,0.3,0.4,0.4c0.1,0.1,0.5,0.2,1.2,0.4c0.8,0.3,1.3,0.8,1.3,1.7c0,1.1-0.8,1.7-2.4,1.7h-0.9
				h-14.1h-1c-0.9,0-1.6-0.1-2.1-0.4c-0.5-0.3-0.7-0.7-0.7-1.3c0-0.9,0.5-1.5,1.5-1.7c0.8-0.2,1.3-0.3,1.5-0.4
				c0.1-0.1,0.3-0.2,0.4-0.4c0.3-0.4,0.5-1,0.5-1.8V659.7z"/>
			<path class="st1" d="M1997.1,659.7V697c0,0.8,0.2,1.4,0.5,1.8c0.2,0.2,0.3,0.3,0.5,0.4c0.1,0.1,0.6,0.2,1.5,0.4
				c1,0.2,1.5,0.8,1.5,1.7c0,0.6-0.3,1-0.8,1.3c-0.4,0.3-1.1,0.4-2,0.4h-1.1h-14.2h-0.8c-0.8,0-1.3-0.1-1.8-0.4
				c-0.4-0.3-0.6-0.7-0.6-1.2c0-0.9,0.4-1.4,1.3-1.7c0.7-0.2,1.1-0.4,1.2-0.4c0.1-0.1,0.2-0.2,0.4-0.4c0.3-0.3,0.4-0.9,0.4-1.6
				v-31.8c0-0.7-0.1-1.3-0.4-1.6c-0.1-0.2-0.2-0.3-0.4-0.4c-0.1-0.1-0.5-0.2-1.2-0.4c-0.8-0.3-1.3-0.8-1.3-1.7
				c0-0.5,0.2-0.9,0.6-1.2c0.4-0.3,1-0.4,1.8-0.4h0.8H1997.1z M1999.8,686.5v-3.4c0.9-0.2,1.5-0.4,1.9-0.7c0.4-0.2,0.7-0.6,1-1.1
				c0.4-0.8,0.7-1.9,0.7-3.3v-10.2c0-1-0.1-1.7-0.2-2.2c-0.1-0.5-0.4-0.9-0.9-1.3c-0.6-0.6-1.4-1-2.5-1.1v-3.4
				c4.4,0,7.6,0.4,9.6,1.2c2.4,1,4.3,2.4,5.7,4.4c1.4,2,2.1,4.5,2.1,7.4c0,3.3-0.7,5.9-2.2,8c-1.4,2.1-3.4,3.6-6,4.5
				C2006.8,686.1,2003.8,686.5,1999.8,686.5z"/>
			<path class="st1" d="M2050.1,667.8l1.6,6.6l-5.6,20.5c-0.2,0.6-0.3,1.1-0.3,1.7c0,1.3,0.6,2.3,1.9,2.9l1.1,0.5
				c0.7,0.3,1,0.8,1,1.6c0,1.1-0.8,1.6-2.3,1.6h-8.1c-0.8,0-1.4-0.2-1.9-0.5c-0.5-0.3-0.7-0.8-0.7-1.3c0-0.6,0.5-1.1,1.4-1.5
				c0.9-0.4,1.5-0.7,1.9-1c0.4-0.3,0.8-0.7,1.2-1.3c0.6-0.9,1.1-2,1.5-3.5L2050.1,667.8z M2052.3,659.7h12.8l8.8,37.3
				c0.2,0.7,0.4,1.2,0.6,1.7c0.2,0.4,0.6,0.7,1.3,1c0.5,0.2,0.9,0.5,1.1,0.7c0.2,0.2,0.3,0.6,0.3,1c0,1.1-0.8,1.7-2.5,1.7h-15.8
				c-0.6,0-1.1-0.2-1.5-0.5s-0.6-0.7-0.6-1.2c0-0.4,0.1-0.7,0.3-1c0.2-0.2,0.6-0.5,1.1-0.8c0.4-0.2,0.7-0.4,0.9-0.7
				c0.2-0.3,0.3-0.6,0.3-1c0-0.4,0-0.7-0.1-1l-1-4.6h-8.9l0.9-3.8h7.1l-5.8-25.8L2052.3,659.7z"/>
			<path class="st1" d="M2103,670.9l3.4,5.6v17c0,1.5,0.2,2.7,0.7,3.6c0.5,1,1.3,1.7,2.4,2.3l1,0.5c0.5,0.3,0.8,0.8,0.8,1.4
				c0,0.5-0.2,0.9-0.6,1.2c-0.3,0.3-1,0.4-2.1,0.4h-7.3c-1.9,0-2.9-0.5-2.9-1.7c0-0.4,0.1-0.7,0.3-0.9c0.2-0.2,0.6-0.5,1.3-0.9
				c2-1.1,3-3.2,3-6.1V670.9z M2116.3,659.7l16.9,29.3v14h-8.7l-21.6-37.1c-0.5-0.8-0.8-1.4-1.1-1.7c-0.3-0.3-0.7-0.5-1.1-0.7
				l-1.2-0.4c-0.3-0.1-0.6-0.3-0.8-0.6c-0.2-0.3-0.3-0.6-0.3-0.9c0-0.4,0.1-0.7,0.3-1c0.2-0.3,0.4-0.5,0.8-0.7
				c0.4-0.1,1.3-0.2,2.9-0.2H2116.3z M2133.2,684l-3.4-5.7v-8.8c0-1.8-0.3-3.1-0.8-4.1c-0.5-0.9-1.4-1.8-2.7-2.4
				c-0.4-0.2-0.8-0.4-0.9-0.7c-0.2-0.2-0.3-0.6-0.3-0.9c0-0.6,0.2-1,0.6-1.3c0.4-0.3,1-0.4,1.8-0.4h7.9c1.1,0,1.8,0.2,2.1,0.5
				c0.4,0.3,0.5,0.7,0.5,1.2c0,0.4-0.1,0.8-0.3,1c-0.2,0.2-0.7,0.5-1.4,0.9c-1.1,0.6-2,1.5-2.5,2.6c-0.4,0.9-0.6,2-0.6,3.5V684z"/>
			<path class="st1" d="M2184,683.2V697c0,0.8,0.2,1.4,0.5,1.8c0.2,0.2,0.3,0.3,0.5,0.4c0.1,0.1,0.6,0.2,1.5,0.4
				c1,0.2,1.5,0.8,1.5,1.7c0,0.6-0.3,1.1-0.9,1.4c-0.3,0.2-1,0.3-2,0.3h-1.1h-14.2h-1c-1,0-1.6-0.1-2-0.4c-0.6-0.3-0.8-0.8-0.8-1.3
				c0-0.9,0.5-1.5,1.5-1.7c0.8-0.2,1.3-0.3,1.5-0.4c0.1-0.1,0.3-0.2,0.4-0.4c0.3-0.4,0.5-1,0.5-1.8v-10.7l-9-21.4
				c-0.3-0.8-0.8-1.4-1.4-1.7c-0.6-0.4-0.9-0.6-1.1-0.9c-0.2-0.2-0.2-0.5-0.2-0.9c0-1.1,0.8-1.7,2.4-1.7h15.6c0.8,0,1.4,0.1,1.7,0.3
				c0.5,0.3,0.8,0.8,0.8,1.3c0,0.7-0.3,1.2-0.9,1.6l-0.9,0.6c-0.4,0.2-0.5,0.6-0.5,1c0,0.5,0.1,1,0.3,1.6L2184,683.2z M2185.2,680.2
				l-1.8-4.2l3.3-7.5c0.3-0.6,0.4-1.5,0.4-2.6c0-1.2-0.7-2.1-2-2.6c-0.7-0.3-1.2-0.6-1.4-0.8c-0.2-0.2-0.3-0.6-0.3-1
				c0-0.6,0.2-1,0.6-1.3c0.3-0.2,0.5-0.3,0.9-0.4c0.3-0.1,0.9-0.1,1.7-0.1h7.8c1.5,0,2.2,0.6,2.2,1.8c0,0.4-0.1,0.8-0.3,1
				c-0.2,0.2-0.6,0.5-1.2,0.7c-1,0.5-1.8,0.9-2.2,1.4c-0.6,0.7-1.2,1.5-1.6,2.3l-0.7,1.6L2185.2,680.2z"/>
		</g>
	</g>
</g>
</svg>
