<svg width="40" height="39" viewBox="0 0 40 39" fill="none" xmlns="http://www.w3.org/2000/svg">
<circle opacity="0.2" cx="14.778" cy="24.2935" r="3.58481" fill="#208C1E"/>
<path d="M14.522 37.6085C21.7342 37.6085 27.5809 31.7618 27.5809 24.5496C27.5809 17.3373 21.7342 11.4906 14.522 11.4906C7.30971 11.4906 1.46301 17.3373 1.46301 24.5496C1.46301 31.7618 7.30971 37.6085 14.522 37.6085Z" stroke="#36496D" stroke-width="2" stroke-linecap="round" stroke-linejoin="round"/>
<path d="M14.7781 33.5116C19.8692 33.5116 23.9962 29.3845 23.9962 24.2935C23.9962 19.2025 19.8692 15.0754 14.7781 15.0754C9.68714 15.0754 5.56006 19.2025 5.56006 24.2935C5.56006 29.3845 9.68714 33.5116 14.7781 33.5116Z" stroke="#36496D" stroke-width="2" stroke-linecap="round" stroke-linejoin="round"/>
<path d="M14.778 29.9268C17.8892 29.9268 20.4113 27.4047 20.4113 24.2935C20.4113 21.1823 17.8892 18.6602 14.778 18.6602C11.6669 18.6602 9.14478 21.1823 9.14478 24.2935C9.14478 27.4047 11.6669 29.9268 14.778 29.9268Z" stroke="#36496D" stroke-width="2" stroke-linecap="round" stroke-linejoin="round"/>
<path d="M14.7782 24.2935L37.9222 1.56274" stroke="#208C1E" stroke-width="2" stroke-linecap="round" stroke-linejoin="round"/>
<path d="M26.0702 13.5391L26.0447 8.41235L32.7022 1.24829V6.40126" stroke="#208C1E" stroke-width="2" stroke-linecap="round" stroke-linejoin="round"/>
<path d="M26.0447 13.5104L31.1761 13.5391L38.3355 6.36945H33.185" stroke="#208C1E" stroke-width="2" stroke-linecap="round" stroke-linejoin="round"/>
</svg>
